<svg viewBox="392.6254 266.6613 174.7455 133" width="5000" height="3805.534334217476" xmlns="http://www.w3.org/2000/svg" xmlns:xlink="http://www.w3.org/1999/xlink" preserveAspectRatio="none"><defs></defs><style>.aD6z1nYkhcolor {fill:#FFFFFF;fill-opacity:1;}.aD6z1nYkhstrokeColor-str {stroke:#D9D9D9;stroke-opacity:1;}.aX-P-qqalBcolors-0 {fill:#FFFFFF;fill-opacity:1;}</style><g opacity="1" transform="rotate(0 392.6254 366.6613)">
<svg width="174.7455" height="33" x="392.6254" y="366.6613" version="1.1" preserveAspectRatio="none" viewBox="-3.9062 -28.4896 197.4609 37.291700000000006">
  <g transform="matrix(1 0 0 1 0 0)" class="aD6z1nYkhcolor"><path id="id-D6z1nYkh11" d="M21.29-21.29L21.29-21.29Q21.13-20.70 21.13-19.84L21.13-19.84Q21.05-19.65 21.02-19.55Q20.98-19.45 20.94-19.38L20.94-19.38Q20.74-18.91 20.55-18.77Q20.35-18.63 20.16-18.55L20.16-18.55Q19.88-18.48 19.77-18.46Q19.65-18.44 19.41-18.36L19.41-18.36Q19.22-18.48 19.12-18.52Q19.02-18.55 18.71-18.48L18.71-18.48Q18.40-18.75 18.28-18.85Q18.16-18.95 18.01-19.06L18.01-19.06Q17.97-19.38 17.91-19.49Q17.85-19.61 17.73-19.80L17.73-19.80Q17.70-20.16 17.70-20.31Q17.70-20.47 17.73-20.59L17.73-20.59Q17.77-20.90 17.77-20.98Q17.77-21.05 17.77-21.09L17.77-21.09Q17.81-21.29 17.83-21.39Q17.85-21.48 17.85-21.56L17.85-21.56L17.85-21.68Q17.85-22.77 17.66-23.20L17.66-23.20Q17.66-23.48 17.46-23.59L17.46-23.59Q17.38-23.63 17.30-23.59L17.30-23.59Q17.23-23.63 17.11-23.67L17.11-23.67Q16.88-23.75 16.80-23.75L16.80-23.75Q16.29-23.59 16.21-23.59L16.21-23.59Q16.02-23.55 15.90-23.59L15.90-23.59Q15.82-23.59 15.78-23.63L15.78-23.63Q15.63-23.59 15.47-23.59L15.47-23.59Q15.16-23.59 15.16-23.67L15.16-23.67Q14.61-23.63 14.43-23.63Q14.26-23.63 14.14-23.63L14.14-23.63L13.52-23.63Q13.32-23.67 13.16-23.67L13.16-23.67Q13.01-23.67 12.85-23.65Q12.70-23.63 12.50-23.59L12.50-23.59Q12.19-23.67 12.03-23.67Q11.88-23.67 11.72-23.75L11.72-23.75L11.05-23.75L10.78-23.75Q10.74-23.67 10.70-23.55L10.70-23.55Q10.63-23.28 10.74-23.16L10.74-23.16Q10.66-22.85 10.66-22.75Q10.66-22.66 10.66-22.58L10.66-22.58Q10.70-22.27 10.70-22.21Q10.70-22.15 10.66-22.07L10.66-22.07Q10.74-21.76 10.70-21.60L10.70-21.60Q10.70-21.33 10.68-20.78Q10.66-20.23 10.66-20.12L10.66-20.12Q10.51-19.34 10.49-18.93Q10.47-18.52 10.47-18.09L10.47-18.09Q10.47-17.70 10.51-17.62L10.51-17.62Q10.43-17.23 10.43-17.13Q10.43-17.03 10.43-16.99L10.43-16.99Q10.47-16.45 10.43-16.17L10.43-16.17Q10.51-15.98 10.49-15.92Q10.47-15.86 10.55-15.74L10.55-15.74Q10.55-15.51 10.57-15.27Q10.59-15.04 10.47-14.84L10.47-14.84Q10.47-14.73 10.49-14.59Q10.51-14.45 10.51-14.34L10.51-14.34L10.51-14.02Q10.51-13.71 10.31-13.40L10.31-13.40Q10.47-12.73 10.31-12.42L10.31-12.42L10.31-11.56Q10.31-11.33 10.33-11.21Q10.35-11.09 10.39-10.98L10.39-10.98Q10.43-10.82 10.45-10.70Q10.47-10.59 10.47-10.47L10.47-10.47Q10.47-10.31 10.43-10.23L10.43-10.23Q10.39-10.12 10.39-9.96L10.39-9.96L10.39-9.49Q10.31-9.30 10.31-9.18Q10.31-9.06 10.27-8.95L10.27-8.95L10.27-8.71Q10.27-8.59 10.23-8.52L10.23-8.52L10.35-8.20Q10.23-7.66 10.31-7.27L10.31-7.27Q10.31-6.76 10.39-6.52L10.39-6.52Q10.43-6.37 10.47-6.09Q10.51-5.82 10.55-5.70L10.55-5.70Q10.59-5.51 10.59-5.23L10.59-5.23Q10.59-4.92 10.59-4.82Q10.59-4.73 10.63-4.65L10.63-4.65Q10.82-4.26 10.82-4.06L10.82-4.06Q11.05-3.91 11.25-3.91Q11.45-3.91 11.64-3.83L11.64-3.83Q12.27-3.91 12.50-3.67L12.50-3.67Q12.89-3.55 13.05-3.44L13.05-3.44Q13.48-3.01 13.57-2.91Q13.67-2.81 13.71-2.73L13.71-2.73Q13.79-2.62 13.83-2.48Q13.87-2.34 13.91-2.03L13.91-2.03Q13.83-1.72 13.79-1.60Q13.75-1.48 13.67-1.37L13.67-1.37Q13.52-1.17 13.50-1.11Q13.48-1.05 13.44-0.90L13.44-0.90Q13.28-0.82 13.22-0.76Q13.16-0.70 13.09-0.66L13.09-0.66Q13.01-0.63 12.97-0.63L12.97-0.63Q12.85-0.55 12.73-0.51L12.73-0.51Q12.46-0.43 12.34-0.55L12.34-0.55Q11.91-0.59 11.78-0.59Q11.64-0.59 11.56-0.59L11.56-0.59Q11.13-0.59 10.88-0.59Q10.63-0.59 10.43-0.63L10.43-0.63Q9.88-0.55 9.63-0.55Q9.38-0.55 9.18-0.59L9.18-0.59Q8.87-0.55 8.69-0.53Q8.52-0.51 8.36-0.47L8.36-0.47Q8.16-0.43 8.01-0.43L8.01-0.43Q7.93-0.43 7.93-0.39L7.93-0.39Q7.66-0.27 7.52-0.25Q7.38-0.23 7.19-0.23L7.19-0.23Q6.91-0.12 6.54-0.16Q6.17-0.20 5.74-0.27L5.74-0.27Q5.66-0.39 5.57-0.49Q5.47-0.59 5.39-0.66L5.39-0.66Q5.16-0.74 5.02-0.90Q4.88-1.05 4.80-1.25L4.80-1.25Q4.69-1.60 4.63-1.76Q4.57-1.91 4.49-2.23L4.49-2.23Q4.73-2.46 4.80-2.56Q4.88-2.66 4.96-2.73L4.96-2.73Q5.04-2.81 5.18-2.93Q5.31-3.05 5.51-3.13L5.51-3.13Q5.66-3.16 5.78-3.16Q5.90-3.16 5.98-3.20L5.98-3.20Q6.29-3.20 6.37-3.22Q6.45-3.24 6.52-3.32L6.52-3.32Q6.95-3.36 7.30-3.44L7.30-3.44L7.19-3.91Q7.07-4.14 7.15-4.38L7.15-4.38Q6.88-5.20 7.07-5.51L7.07-5.51Q7.03-5.70 7.03-5.94L7.03-5.94Q6.91-6.33 6.89-6.41Q6.88-6.48 6.88-6.52L6.88-6.52Q6.91-6.95 6.93-7.09Q6.95-7.23 6.95-7.34L6.95-7.34Q6.88-7.62 6.88-7.75Q6.88-7.89 6.88-7.97L6.88-7.97Q6.84-8.09 6.84-8.28L6.84-8.28Q6.84-8.36 6.80-8.40L6.80-8.40L6.80-8.67Q6.80-8.79 6.78-8.87Q6.76-8.95 6.80-9.02L6.80-9.02Q6.80-9.53 6.84-9.69L6.84-9.69Q6.88-10.04 6.88-10.20Q6.88-10.35 6.88-10.43L6.88-10.43Q6.95-10.74 6.95-10.82Q6.95-10.90 6.95-10.98L6.95-10.98Q6.88-11.29 6.88-11.41Q6.88-11.52 6.88-11.60L6.88-11.60Q6.88-11.76 6.89-11.89Q6.91-12.03 6.91-12.11L6.91-12.11L6.91-12.30L6.91-13.01Q6.95-13.16 6.95-13.30Q6.95-13.44 6.99-13.55L6.99-13.55L7.11-14.53Q7.11-14.80 7.15-14.96L7.15-14.96Q7.11-15.16 7.13-15.31Q7.15-15.47 7.15-15.59L7.15-15.59Q7.07-16.13 7.05-16.37Q7.03-16.60 7.07-16.80L7.07-16.80L7.07-17.93Q7.15-18.48 7.15-18.61Q7.15-18.75 7.15-18.79L7.15-18.79Q7.15-19.10 7.13-19.22Q7.11-19.34 7.15-19.45L7.15-19.45Q7.11-19.65 7.19-19.96L7.19-19.96L7.23-20.39Q7.38-20.86 7.34-21.02L7.34-21.02L7.34-21.68Q7.27-22.15 7.30-22.36Q7.34-22.58 7.34-22.77L7.34-22.77Q7.27-23.05 7.27-23.22Q7.27-23.40 7.23-23.55L7.23-23.55Q6.88-23.75 6.70-23.77Q6.52-23.79 6.41-23.79L6.41-23.79Q6.17-23.79 5.94-23.87L5.94-23.87Q5.55-23.91 5.33-23.93Q5.12-23.95 4.92-23.98L4.92-23.98Q4.65-24.06 4.28-24.02Q3.91-23.98 3.63-23.91L3.63-23.91Q3.09-23.98 2.93-23.95Q2.77-23.91 2.73-23.83L2.73-23.83Q2.23-23.83 1.95-23.77Q1.68-23.71 1.52-23.71L1.52-23.71Q1.21-23.79 1.07-23.81Q0.94-23.83 0.86-23.83L0.86-23.83Q0.47-23.79 0.31-23.81Q0.16-23.83 0.04-23.91L0.04-23.91Q-0.27-23.83-0.33-23.77Q-0.39-23.71-0.43-23.67L-0.43-23.67Q-0.43-23.59-0.41-23.44Q-0.39-23.28-0.39-23.16L-0.39-23.16Q-0.39-23.01-0.35-22.85L-0.35-22.85L-0.35-22.50Q-0.35-22.34-0.33-22.23Q-0.31-22.11-0.31-22.07L-0.31-22.07L-0.31-21.56Q-0.20-20.98-0.21-20.64Q-0.23-20.31-0.39-19.84L-0.39-19.84Q-0.59-19.65-0.68-19.53Q-0.78-19.41-0.94-19.22L-0.94-19.22Q-1.37-19.18-1.52-19.22L-1.52-19.22Q-1.99-19.06-2.19-19.06L-2.19-19.06L-2.34-19.06Q-2.54-19.10-2.70-19.18L-2.70-19.18Q-2.85-19.26-2.99-19.30Q-3.13-19.34-3.16-19.41L-3.16-19.41Q-3.52-19.80-3.67-20.20L-3.67-20.20Q-3.75-20.51-3.77-20.66Q-3.79-20.82-3.83-21.17L-3.83-21.17Q-3.67-21.48-3.65-21.64Q-3.63-21.80-3.63-21.91L-3.63-21.91Q-3.67-22.34-3.69-22.54Q-3.71-22.73-3.63-22.93L-3.63-22.93Q-3.67-23.20-3.63-23.44L-3.63-23.44L-3.63-24.14Q-3.63-24.22-3.65-24.32Q-3.67-24.41-3.71-24.57L-3.71-24.57Q-3.83-24.77-3.87-25L-3.87-25Q-3.87-25.31-3.87-25.39Q-3.87-25.47-3.91-25.55L-3.91-25.55Q-3.75-25.86-3.65-25.96Q-3.55-26.05-3.48-26.13L-3.48-26.13Q-3.13-26.45-2.97-26.54Q-2.81-26.64-2.70-26.68L-2.70-26.68Q-2.19-26.80-2.01-26.82Q-1.84-26.84-1.76-26.84L-1.76-26.84Q-1.68-26.84-1.29-26.76L-1.29-26.76Q-0.98-26.80-0.90-26.78Q-0.82-26.76-0.74-26.76L-0.74-26.76Q-0.47-26.80-0.12-26.68L-0.12-26.68Q0.12-26.76 0.33-26.72Q0.55-26.68 0.74-26.60L0.74-26.60Q1.29-26.80 1.88-26.68L1.88-26.68Q2.58-26.88 2.97-26.88L2.97-26.88L3.83-26.88Q3.95-26.88 4.18-26.91Q4.41-26.95 4.69-26.95L4.69-26.95Q4.88-26.99 5.16-26.95Q5.43-26.91 5.63-26.80L5.63-26.80Q5.82-26.84 6.05-26.80L6.05-26.80Q6.37-26.76 6.48-26.76Q6.60-26.76 6.68-26.76L6.68-26.76Q7.03-26.72 7.13-26.72Q7.23-26.72 7.27-26.68L7.27-26.68Q7.46-26.68 7.58-26.72L7.58-26.72Q7.70-26.72 7.81-26.76L7.81-26.76L8.24-26.68Q8.44-26.72 8.63-26.74Q8.83-26.76 9.02-26.76L9.02-26.76L9.80-26.76Q10.16-26.88 10.43-26.80L10.43-26.80Q10.74-26.88 10.98-26.76L10.98-26.76L11.64-26.76Q11.91-26.68 12.15-26.66Q12.38-26.64 12.50-26.60L12.50-26.60Q12.73-26.76 13.05-26.68L13.05-26.68Q13.48-26.84 13.83-26.72L13.83-26.72Q13.95-26.72 14.08-26.74Q14.22-26.76 14.34-26.72L14.34-26.72Q14.73-26.84 15.08-26.86Q15.43-26.88 15.74-26.84L15.74-26.84L16.33-26.84L16.56-26.84Q16.64-26.84 16.72-26.88L16.72-26.88L17.19-26.88Q17.38-26.91 17.62-26.84L17.62-26.84Q17.85-26.72 17.93-26.72L17.93-26.72L18.05-26.72Q18.44-26.88 18.61-26.91Q18.79-26.95 18.91-26.95L18.91-26.95Q19.45-26.84 19.67-26.76Q19.88-26.68 20-26.60L20-26.60Q20.04-26.56 20.12-26.56Q20.20-26.56 20.27-26.52L20.27-26.52Q20.39-26.48 20.47-26.48L20.47-26.48L20.70-26.09Q20.90-25.90 20.98-25.74L20.98-25.74Q21.02-25.47 21.04-25.31Q21.05-25.16 21.09-25L21.09-25Q21.09-24.84 21.09-24.67Q21.09-24.49 21.02-24.30L21.02-24.30Q21.05-24.10 21.07-23.91Q21.09-23.71 21.02-23.48L21.02-23.48Q21.17-22.97 21.17-22.97L21.17-22.97Q21.17-22.58 21.15-22.44Q21.13-22.30 21.13-22.23L21.13-22.23Q21.21-21.99 21.21-21.91Q21.21-21.84 21.21-21.80L21.21-21.80Q21.33-21.52 21.29-21.29Z M36.17-13.95L36.17-13.95Q36.09-13.75 36.07-13.67Q36.05-13.59 36.05-13.52L36.05-13.52Q35.98-13.20 35.84-12.95Q35.70-12.70 35.59-12.27L35.59-12.27Q35.47-12.15 35.41-12.07Q35.35-11.99 35.27-11.91L35.27-11.91L35.16-11.80Q35.04-11.72 34.96-11.68L34.96-11.68Q34.92-11.64 34.84-11.64L34.84-11.64Q34.80-11.64 34.77-11.60L34.77-11.60Q34.45-11.52 34.22-11.45Q33.98-11.37 33.67-11.45L33.67-11.45Q33.20-11.60 33.01-11.91L33.01-11.91Q32.93-11.91 32.85-12.07L32.85-12.07L32.73-12.19Q32.70-12.30 32.70-12.42L32.70-12.42Q32.66-12.54 32.66-12.66L32.66-12.66Q32.58-12.89 32.62-13.20L32.62-13.20Q32.66-13.52 32.66-13.71Q32.66-13.91 32.73-14.10L32.73-14.10L32.38-14.38Q32.30-14.38 32.17-14.38Q32.03-14.38 31.91-14.45L31.91-14.45Q31.80-14.45 31.66-14.45Q31.52-14.45 31.41-14.53L31.41-14.53Q31.21-14.53 30.76-14.45Q30.31-14.38 29.88-14.14L29.88-14.14Q29.57-14.02 29.49-14.02Q29.41-14.02 29.38-14.06L29.38-14.06Q28.95-13.83 28.73-13.67Q28.52-13.52 28.24-13.24L28.24-13.24Q28.05-13.05 27.97-13.01L27.97-13.01Q27.89-12.97 27.85-12.93L27.85-12.93Q27.73-12.89 27.66-12.81L27.66-12.81L27.54-12.70Q27.50-12.66 27.46-12.66L27.46-12.66L27.03-12.15Q26.95-11.99 26.84-11.88L26.84-11.88Q26.64-11.64 26.52-11.56L26.52-11.56Q26.37-11.29 26.33-11.23Q26.29-11.17 26.25-11.13L26.25-11.13Q26.02-10.59 25.94-10.39Q25.86-10.20 25.82-10.12L25.82-10.12Q25.82-9.57 25.80-9.32Q25.78-9.06 25.78-8.83L25.78-8.83Q25.86-8.05 25.78-7.19L25.78-7.19Q25.94-6.84 25.82-6.52L25.82-6.52Q25.94-5.94 25.86-5.86L25.86-5.86Q25.94-5.66 26.02-5.66Q26.09-5.66 26.29-5.74L26.29-5.74Q26.52-5.59 26.76-5.57Q26.99-5.55 27.23-5.55Q27.46-5.55 27.66-5.49Q27.85-5.43 28.05-5.27L28.05-5.27Q28.13-5.23 28.20-5.12Q28.28-5 28.36-4.84L28.36-4.84Q28.48-4.69 28.55-4.49L28.55-4.49Q28.52-4.38 28.52-4.26L28.52-4.26L28.52-4.02Q28.44-3.59 28.30-3.36Q28.16-3.13 28.05-3.01L28.05-3.01Q27.85-2.58 27.46-2.50L27.46-2.50Q27.03-2.42 26.86-2.36Q26.68-2.30 26.56-2.27L26.56-2.27Q26.37-2.23 26.21-2.25Q26.05-2.27 25.86-2.30L25.86-2.30Q25.59-2.38 25.55-2.40Q25.51-2.42 25.43-2.46L25.43-2.46Q25.27-2.46 25.18-2.48Q25.08-2.50 25-2.46L25-2.46Q24.84-2.46 24.71-2.44Q24.57-2.42 24.38-2.42L24.38-2.42L23.55-2.42Q23.36-2.42 23.18-2.42Q23.01-2.42 22.81-2.34L22.81-2.34L22.30-2.23Q22.03-2.23 21.74-2.27Q21.45-2.30 21.17-2.42L21.17-2.42Q20.63-2.54 20.47-3.05L20.47-3.05Q20.43-3.32 20.41-3.50Q20.39-3.67 20.39-3.75L20.39-3.75L20.39-3.91Q20.43-4.02 20.47-4.18L20.47-4.18Q20.55-4.45 20.63-4.53L20.63-4.53L20.94-4.77L21.33-4.96Q21.52-5.04 21.62-5.08Q21.72-5.12 21.80-5.16L21.80-5.16L21.88-5.20Q22.07-5.27 22.19-5.29Q22.30-5.31 22.38-5.35L22.38-5.35Q22.42-5.66 22.42-6.02Q22.42-6.37 22.46-6.56L22.46-6.56Q22.38-6.91 22.42-7.11L22.42-7.11Q22.34-7.50 22.36-7.64Q22.38-7.77 22.38-7.85L22.38-7.85Q22.50-8.20 22.42-8.55L22.42-8.55L22.42-9.26L22.46-9.88Q22.50-10.23 22.50-10.41Q22.50-10.59 22.54-10.66L22.54-10.66Q22.62-10.78 22.62-10.90Q22.62-11.02 22.66-11.13L22.66-11.13Q22.70-11.52 22.70-11.60Q22.70-11.68 22.70-11.76L22.70-11.76Q22.70-11.84 22.68-11.93Q22.66-12.03 22.66-12.19L22.66-12.19L22.81-12.93Q22.62-13.48 22.68-13.77Q22.73-14.06 22.73-14.26L22.73-14.26Q22.23-14.49 21.74-14.77Q21.25-15.04 20.94-15.47L20.94-15.47L20.74-15.90L20.82-16.76L21.29-17.50Q21.41-17.54 21.56-17.62L21.56-17.62Q21.68-17.70 21.84-17.73Q21.99-17.77 22.11-17.85L22.11-17.85Q22.15-17.85 22.32-17.83Q22.50-17.81 22.70-17.79Q22.89-17.77 23.07-17.75Q23.24-17.73 23.32-17.73L23.32-17.73Q23.52-17.77 23.65-17.75Q23.79-17.73 23.91-17.73L23.91-17.73L24.38-17.73Q25.04-17.73 25.47-17.34Q25.90-16.95 26.02-16.68L26.02-16.68Q26.09-16.37 26.09-16.25L26.09-16.25Q26.05-15.94 26.05-15.86Q26.05-15.78 26.09-15.70L26.09-15.70Q26.45-15.82 26.54-15.88Q26.64-15.94 26.72-16.02L26.72-16.02Q26.95-16.17 27.01-16.23Q27.07-16.29 27.15-16.37L27.15-16.37Q27.34-16.45 27.54-16.52Q27.73-16.60 27.93-16.68L27.93-16.68Q28.28-16.84 28.52-17.11L28.52-17.11Q28.83-17.11 28.91-17.15Q28.98-17.19 29.14-17.34L29.14-17.34Q29.73-17.34 29.96-17.46L29.96-17.46Q30.16-17.54 30.29-17.54Q30.43-17.54 30.55-17.54L30.55-17.54Q31.09-17.54 31.48-17.58Q31.88-17.62 32.19-17.62L32.19-17.62Q32.42-17.62 32.99-17.56Q33.55-17.50 33.87-17.38L33.87-17.38Q34.10-17.27 34.26-17.27L34.26-17.27L34.41-17.27Q34.53-17.23 34.69-17.19L34.69-17.19Q35-17.03 35.08-16.91L35.08-16.91Q35.51-16.48 35.66-16.13Q35.82-15.78 35.90-15.43L35.90-15.43Q35.98-15.12 36.04-14.77Q36.09-14.41 36.17-13.95Z M42.66-24.10L42.97-23.36Q42.85-23.05 42.83-22.93Q42.81-22.81 42.81-22.73L42.81-22.73Q42.66-22.30 42.62-22.13Q42.58-21.95 42.50-21.80L42.50-21.80Q42.34-21.45 42.30-21.37Q42.27-21.29 42.23-21.25L42.23-21.25Q41.60-20.94 41.37-20.94Q41.13-20.94 40.94-20.98L40.94-20.98Q40.78-20.98 40.61-21.00Q40.43-21.02 40.08-20.98L40.08-20.98Q39.84-21.21 39.79-21.31Q39.73-21.41 39.65-21.48L39.65-21.48Q39.53-21.68 39.45-21.72Q39.38-21.76 39.18-21.84L39.18-21.84Q39.14-22.15 39.10-22.27Q39.06-22.38 39.02-22.46L39.02-22.46Q38.95-22.54 38.89-22.71Q38.83-22.89 38.63-23.40L38.63-23.40Q38.87-23.71 38.98-23.91Q39.10-24.10 39.30-24.26L39.30-24.26Q39.57-24.45 39.77-24.55Q39.96-24.65 40.08-24.73L40.08-24.73Q40.27-24.80 40.37-24.90Q40.47-25 40.59-25.12L40.59-25.12Q40.90-25.04 41.05-25.08Q41.21-25.12 41.41-25.08L41.41-25.08Q42.34-24.77 42.66-24.10L42.66-24.10ZM45.90-3.59L45.90-3.59Q45.82-3.40 45.82-3.34Q45.82-3.28 45.82-3.13L45.82-3.13Q45.59-2.81 45.43-2.68Q45.27-2.54 45.16-2.46L45.16-2.46Q44.41-2.23 44.00-2.19Q43.59-2.15 43.28-2.15L43.28-2.15Q42.97-2.11 42.79-2.15Q42.62-2.19 42.42-2.23L42.42-2.23Q42.03-2.15 41.93-2.13Q41.84-2.11 41.76-2.11L41.76-2.11Q41.68-2.07 41.62-2.09Q41.56-2.11 41.48-2.11L41.48-2.11Q41.41-2.11 41.37-2.15L41.37-2.15L41.09-2.15Q40.98-2.15 40.88-2.17Q40.78-2.19 40.74-2.19L40.74-2.19Q40.31-2.15 40-2.34L40-2.34Q39.69-2.50 39.69-2.54L39.69-2.54Q39.65-2.58 39.61-2.58L39.61-2.58Q39.30-2.89 39.24-2.99Q39.18-3.09 39.14-3.13L39.14-3.13Q39.06-3.24 39.02-3.34Q38.98-3.44 38.95-3.52L38.95-3.52Q38.79-3.95 38.83-4.24Q38.87-4.53 39.30-4.96L39.30-4.96Q39.61-5.04 39.71-5.14Q39.80-5.23 39.88-5.23L39.88-5.23Q39.96-5.31 40.18-5.31Q40.39-5.31 40.51-5.35L40.51-5.35Q40.43-5.70 40.45-6.27Q40.47-6.84 40.51-7.11L40.51-7.11Q40.39-7.30 40.35-7.77L40.35-7.77Q40.31-8.01 40.27-8.36L40.27-8.36Q40.23-8.59 40.23-8.79L40.23-8.79Q40.23-8.98 40.21-9.10Q40.20-9.22 40.20-9.30L40.20-9.30Q40.16-9.65 40.18-10Q40.20-10.35 40.20-10.70L40.20-10.70Q40.23-10.86 40.21-10.94Q40.20-11.02 40.12-11.21L40.12-11.21Q40.20-11.52 40.21-11.66Q40.23-11.80 40.23-11.91L40.23-11.91Q40.20-12.07 40.18-12.23Q40.16-12.38 40.08-12.62L40.08-12.62Q40.12-12.81 40.14-12.93Q40.16-13.05 40.16-13.13L40.16-13.13Q40.08-13.48 40.12-13.63L40.12-13.63Q40.12-14.02 40.08-14.32Q40.04-14.61 40.08-14.84L40.08-14.84L40.12-15.39Q39.88-15.27 39.61-15.27Q39.34-15.27 39.06-15.23L39.06-15.23Q38.75-15.20 38.69-15.33Q38.63-15.47 38.44-15.47L38.44-15.47Q38.36-15.55 38.32-15.61Q38.28-15.66 38.20-15.70L38.20-15.70Q38.13-15.74 38.09-15.78L38.09-15.78L37.93-15.94Q37.77-16.09 37.77-16.17L37.77-16.17Q37.58-16.48 37.58-16.58Q37.58-16.68 37.62-16.76L37.62-16.76Q37.66-17.03 37.68-17.21Q37.70-17.38 37.85-17.62L37.85-17.62Q38.05-17.73 38.14-17.77Q38.24-17.81 38.32-17.89L38.32-17.89Q38.36-17.93 38.44-17.97L38.44-17.97L38.67-18.09Q38.83-18.16 38.98-18.28L38.98-18.28L39.88-18.48Q39.96-18.52 40.12-18.55L40.12-18.55Q40.20-18.59 40.33-18.63Q40.47-18.67 40.55-18.71L40.55-18.71L41.02-18.71Q41.13-18.75 41.31-18.77Q41.48-18.79 41.72-18.75L41.72-18.75Q41.91-18.75 42.09-18.73Q42.27-18.71 42.42-18.63L42.42-18.63Q42.62-18.52 42.66-18.48Q42.70-18.44 42.85-18.36L42.85-18.36Q43.05-17.89 43.07-17.56Q43.09-17.23 43.05-16.95L43.05-16.95Q42.97-16.64 42.97-16.48L42.97-16.48Q42.97-15.94 43.01-15.72Q43.05-15.51 43.09-15.27L43.09-15.27Q43.13-15.08 43.13-14.69L43.13-14.69L43.13-14.10Q43.09-13.79 43.09-13.61Q43.09-13.44 43.09-13.36L43.09-13.36Q43.16-13.24 43.20-13.14Q43.24-13.05 43.28-12.85L43.28-12.85Q43.28-12.54 43.20-12.23L43.20-12.23Q43.16-11.91 43.16-11.82Q43.16-11.72 43.20-11.56L43.20-11.56Q43.24-11.41 43.28-11.23Q43.32-11.05 43.32-10.82L43.32-10.82Q43.24-10.43 43.24-10.47L43.24-10.47L43.24-10.39Q43.13-9.84 43.20-9.61L43.20-9.61Q43.24-9.41 43.30-9.26Q43.36-9.10 43.36-8.95L43.36-8.95Q43.40-8.79 43.40-8.52L43.40-8.52Q43.48-8.05 43.48-7.89Q43.48-7.73 43.48-7.66L43.48-7.66L43.48-7.15Q43.75-6.64 43.63-6.25L43.63-6.25Q43.75-5.78 43.71-5.39L43.71-5.39Q43.79-5.39 43.93-5.39Q44.06-5.39 44.18-5.31L44.18-5.31Q44.38-5.31 44.57-5.27Q44.77-5.23 44.96-5.16L44.96-5.16Q45.16-5.08 45.35-5.04L45.35-5.04Q45.43-4.96 45.55-4.80L45.55-4.80Q45.63-4.69 45.70-4.55Q45.78-4.41 45.86-4.34L45.86-4.34Q45.94-4.10 45.94-3.91Q45.94-3.71 45.90-3.59Z M65.23-9.77L65.23-9.77Q65.31-9.34 65.20-8.87L65.20-8.87L64.92-8.32Q64.88-8.24 64.88-8.18Q64.88-8.13 64.88-7.89L64.88-7.89Q64.57-7.54 64.45-7.27Q64.34-6.99 64.22-6.64L64.22-6.64Q64.02-6.33 63.96-6.27Q63.91-6.21 63.91-6.17L63.91-6.17Q63.67-5.78 63.61-5.70Q63.55-5.63 63.52-5.55L63.52-5.55Q63.13-5.16 62.97-5.04L62.97-5.04Q62.89-4.96 62.66-4.61L62.66-4.61Q62.42-4.49 62.29-4.45Q62.15-4.41 62.03-4.38L62.03-4.38Q61.72-4.22 61.62-4.14Q61.52-4.06 61.45-4.02L61.45-4.02Q61.21-3.87 61.13-3.79Q61.05-3.71 60.90-3.52L60.90-3.52Q60.43-3.44 60.27-3.42Q60.12-3.40 60-3.40L60-3.40Q59.80-3.36 59.57-3.16L59.57-3.16Q59.30-3.16 59.14-3.13Q58.98-3.09 58.67-2.89L58.67-2.89L58.24-2.97Q57.93-2.81 57.73-2.81L57.73-2.81Q57.42-2.70 57.15-2.70L57.15-2.70Q56.84-2.66 56.68-2.66Q56.52-2.66 56.41-2.62L56.41-2.62Q55.94-2.54 55.84-2.54Q55.74-2.54 55.66-2.54L55.66-2.54Q54.88-2.46 54.45-2.62L54.45-2.62Q54.06-2.70 53.91-2.73L53.91-2.73Q53.79-2.34 53.87-2.11L53.87-2.11Q53.91-1.76 53.91-1.62Q53.91-1.48 53.87-1.37L53.87-1.37Q53.79-1.05 53.77-1.00Q53.75-0.94 53.75-0.86L53.75-0.86Q53.75-0.66 53.77-0.55Q53.79-0.43 53.79-0.27L53.79-0.27Q53.71 0.04 53.73 0.31Q53.75 0.59 53.79 0.74L53.79 0.74Q53.83 1.13 53.83 1.25Q53.83 1.37 53.83 1.45L53.83 1.45Q53.83 1.99 53.81 2.13Q53.79 2.27 53.79 2.34L53.79 2.34Q53.87 3.01 53.93 3.44Q53.98 3.87 53.91 4.26L53.91 4.26Q53.91 4.53 53.96 4.77Q54.02 5 54.22 5.43L54.22 5.43Q54.38 5.55 54.47 5.55Q54.57 5.55 54.80 5.39L54.80 5.39Q55.23 5.59 55.31 5.59L55.31 5.59Q55.74 5.63 55.88 5.66Q56.02 5.70 56.09 5.78L56.09 5.78Q56.48 6.21 56.60 6.39Q56.72 6.56 56.95 6.88L56.95 6.88Q56.84 7.23 56.78 7.38Q56.72 7.54 56.64 7.73L56.64 7.73Q56.29 8.16 56.15 8.28Q56.02 8.40 55.70 8.67L55.70 8.67Q55.39 8.63 55.27 8.65Q55.16 8.67 55.04 8.67L55.04 8.67Q54.80 8.71 54.57 8.63L54.57 8.63Q54.38 8.67 54.24 8.69Q54.10 8.71 54.02 8.71L54.02 8.71Q53.79 8.79 53.46 8.79Q53.13 8.79 52.75 8.77Q52.38 8.75 52.03 8.73Q51.68 8.71 51.48 8.67L51.48 8.67Q51.13 8.75 50.80 8.79Q50.47 8.83 50.16 8.75L50.16 8.75Q50 8.79 49.82 8.75Q49.65 8.71 49.45 8.63L49.45 8.63Q49.26 8.55 49.02 8.48L49.02 8.48L48.71 8.16Q48.59 8.05 48.50 7.95Q48.40 7.85 48.44 7.81L48.44 7.81L48.44 7.38Q48.48 7.23 48.54 7.13Q48.59 7.03 48.67 6.91L48.67 6.91Q48.91 6.56 48.96 6.48Q49.02 6.41 49.02 6.37L49.02 6.37Q49.10 6.33 49.14 6.27Q49.18 6.21 49.38 6.02L49.38 6.02Q49.69 5.94 49.80 5.90Q49.92 5.86 50.08 5.78L50.08 5.78Q50.31 5.82 50.37 5.82Q50.43 5.82 50.51 5.78L50.51 5.78Q50.66 5.47 50.66 5.29Q50.66 5.12 50.66 4.88L50.66 4.88Q50.59 4.30 50.63 4.02Q50.66 3.75 50.66 3.55L50.66 3.55Q50.66 3.28 50.64 3.03Q50.63 2.77 50.59 2.50L50.59 2.50Q50.55 2.19 50.53 1.91Q50.51 1.64 50.55 1.33L50.55 1.33L50.55 0.20Q50.51-0.08 50.51-0.18Q50.51-0.27 50.51-0.35L50.51-0.35Q50.47-0.55 50.47-0.70Q50.47-0.86 50.47-1.05L50.47-1.05Q50.59-1.72 50.55-2.34Q50.51-2.97 50.43-3.13L50.43-3.13Q50.47-3.40 50.49-3.87Q50.51-4.34 50.51-4.82Q50.51-5.31 50.49-5.76Q50.47-6.21 50.47-6.48L50.47-6.48Q50.47-6.84 50.45-6.95Q50.43-7.07 50.43-7.15L50.43-7.15L50.43-8.20Q50.47-8.59 50.43-9.06L50.43-9.06L50.27-9.53Q50.27-9.61 50.29-9.90Q50.31-10.20 50.31-10.31L50.31-10.31Q50.23-10.70 50.23-10.98Q50.23-11.25 50.23-11.52L50.23-11.52Q50.23-11.72 50.25-11.91Q50.27-12.11 50.27-12.30L50.27-12.30Q50.23-13.20 50.23-14.04Q50.23-14.88 50.23-15.74L50.23-15.74Q49.69-15.59 49.41-15.63L49.41-15.63Q49.14-15.63 49.06-15.61Q48.98-15.59 48.91-15.59L48.91-15.59Q48.55-15.55 48.24-15.78L48.24-15.78Q48.09-15.78 47.89-15.84Q47.70-15.90 47.54-16.09L47.54-16.09Q47.34-16.29 47.34-16.54Q47.34-16.80 47.38-16.95L47.38-16.95Q47.38-17.30 47.38-17.44Q47.38-17.58 47.46-17.70L47.46-17.70Q47.58-18.01 47.64-18.09Q47.70-18.16 47.77-18.24L47.77-18.24Q48.05-18.48 48.32-18.73Q48.59-18.98 49.02-18.98L49.02-18.98Q49.22-19.18 49.57-19.14L49.57-19.14Q50-19.30 50.08-19.32Q50.16-19.34 50.20-19.34L50.20-19.34Q50.55-19.41 50.70-19.41Q50.86-19.41 50.94-19.41L50.94-19.41L51.37-19.41Q51.68-19.53 51.76-19.55Q51.84-19.57 51.88-19.57L51.88-19.57Q52.30-19.65 52.40-19.65Q52.50-19.65 52.54-19.65L52.54-19.65L53.20-19.65Q53.75-19.65 53.96-19.63Q54.18-19.61 54.30-19.61L54.30-19.61Q54.53-19.57 54.61-19.57Q54.69-19.57 54.77-19.57L54.77-19.57Q55.16-19.61 55.27-19.61Q55.39-19.61 55.47-19.57L55.47-19.57Q55.55-19.53 55.66-19.55Q55.78-19.57 55.86-19.57L55.86-19.57L56.02-19.57L56.25-19.49Q56.48-19.41 56.56-19.41L56.56-19.41Q56.84-19.45 56.89-19.45Q56.95-19.45 57.03-19.41L57.03-19.41Q57.19-19.38 57.30-19.34Q57.42-19.30 57.54-19.26L57.54-19.26Q57.62-19.22 57.70-19.20Q57.77-19.18 58.05-19.22L58.05-19.22Q58.13-19.14 58.24-19.10Q58.36-19.06 58.55-18.98L58.55-18.98Q58.71-18.91 58.98-18.87L58.98-18.87Q59.10-18.79 59.26-18.71L59.26-18.71Q59.49-18.59 59.65-18.59L59.65-18.59Q59.77-18.40 59.82-18.34Q59.88-18.28 59.92-18.24L59.92-18.24Q60-18.16 60.12-18.11Q60.23-18.05 60.35-17.97L60.35-17.97Q60.70-17.77 60.80-17.71Q60.90-17.66 60.94-17.62L60.94-17.62Q61.25-17.42 61.31-17.38Q61.37-17.34 61.41-17.30L61.41-17.30Q61.52-17.23 61.64-17.13Q61.76-17.03 61.84-16.88L61.84-16.88Q62.23-16.64 62.42-16.48L62.42-16.48Q62.81-16.13 62.81-16.05L62.81-16.05L63.28-15.59Q63.44-15.16 63.61-14.84Q63.79-14.53 64.10-14.22L64.10-14.22Q64.10-13.98 64.30-13.71L64.30-13.71Q64.41-13.55 64.53-13.48L64.53-13.48L64.84-12.73Q64.92-12.34 65-11.99L65-11.99Q65.08-11.68 65.10-11.39Q65.12-11.09 65.12-10.90L65.12-10.90Q65.20-10.39 65.21-10.18Q65.23-9.96 65.23-9.77ZM61.72-9.30L61.80-9.65L61.80-10.08Q61.68-10.63 61.64-10.86Q61.60-11.09 61.56-11.25L61.56-11.25Q61.41-11.68 61.17-12.15Q60.94-12.62 60.78-12.81L60.78-12.81Q60.63-13.09 60.59-13.16Q60.55-13.24 60.51-13.28L60.51-13.28Q60.31-13.52 60.25-13.59Q60.20-13.67 60.16-13.71L60.16-13.71Q59.84-13.95 59.73-14.02Q59.61-14.10 59.53-14.18L59.53-14.18Q59.30-14.41 59.24-14.47Q59.18-14.53 59.10-14.57L59.10-14.57Q58.55-14.96 58.18-15.29Q57.81-15.63 57.38-15.51L57.38-15.51Q57.19-15.70 56.78-15.78Q56.37-15.86 56.09-15.90L56.09-15.90Q55.78-15.98 55.53-15.98Q55.27-15.98 55.08-16.05L55.08-16.05Q54.77-16.09 54.69-16.07Q54.61-16.05 54.49-16.05L54.49-16.05Q54.30-16.13 54.20-16.11Q54.10-16.09 54.02-16.09L54.02-16.09Q53.83-16.05 53.71-16.02Q53.59-15.98 53.40-16.05L53.40-16.05Q53.28-15.90 53.24-15.51Q53.20-15.12 53.20-14.71Q53.20-14.30 53.24-13.95Q53.28-13.59 53.28-13.52L53.28-13.52Q53.32-13.16 53.32-13.09Q53.32-13.01 53.32-12.97L53.32-12.97Q53.36-12.58 53.38-12.40Q53.40-12.23 53.36-12.07L53.36-12.07Q53.44-11.68 53.38-11.31Q53.32-10.94 53.32-10.78L53.32-10.78Q53.44-10.47 53.40-10.16L53.40-10.16Q53.40-9.96 53.42-9.80Q53.44-9.65 53.48-9.45L53.48-9.45Q53.52-9.18 53.55-8.95Q53.59-8.71 53.59-8.48L53.59-8.48L53.59-6.88Q53.59-6.68 53.67-6.37L53.67-6.37Q54.06-6.13 54.28-6.11Q54.49-6.09 54.65-6.13L54.65-6.13Q54.88-6.05 55-6.07Q55.12-6.09 55.27-6.02L55.27-6.02Q55.39-5.98 55.51-5.98Q55.63-5.98 55.74-5.94L55.74-5.94Q56.05-6.05 56.33-5.98L56.33-5.98Q56.68-6.05 56.80-6.07Q56.91-6.09 56.99-6.13L56.99-6.13Q57.50-6.21 57.64-6.23Q57.77-6.25 57.81-6.25L57.81-6.25Q57.97-6.33 58.03-6.33Q58.09-6.33 58.24-6.37L58.24-6.37Q58.44-6.41 58.54-6.43Q58.63-6.45 58.75-6.45L58.75-6.45Q59.06-6.64 59.45-6.64L59.45-6.64Q59.77-6.80 59.90-6.84Q60.04-6.88 60.12-6.95L60.12-6.95Q60.35-7.19 60.55-7.23L60.55-7.23Q60.63-7.34 60.72-7.48Q60.82-7.62 60.98-7.70L60.98-7.70Q61.05-7.85 61.11-7.97Q61.17-8.09 61.25-8.16L61.25-8.16Q61.29-8.24 61.41-8.44Q61.52-8.63 61.52-8.71L61.52-8.71Q61.56-9.10 61.72-9.30L61.72-9.30Z M84.18-9.77L84.18-9.77Q84.26-9.34 84.14-8.87L84.14-8.87L83.87-8.32Q83.83-8.24 83.83-8.18Q83.83-8.13 83.83-7.89L83.83-7.89Q83.52-7.54 83.40-7.27Q83.28-6.99 83.16-6.64L83.16-6.64Q82.97-6.33 82.91-6.27Q82.85-6.21 82.85-6.17L82.85-6.17Q82.62-5.78 82.56-5.70Q82.50-5.63 82.46-5.55L82.46-5.55Q82.07-5.16 81.91-5.04L81.91-5.04Q81.84-4.96 81.60-4.61L81.60-4.61Q81.37-4.49 81.23-4.45Q81.09-4.41 80.98-4.38L80.98-4.38Q80.66-4.22 80.57-4.14Q80.47-4.06 80.39-4.02L80.39-4.02Q80.16-3.87 80.08-3.79Q80-3.71 79.84-3.52L79.84-3.52Q79.38-3.44 79.22-3.42Q79.06-3.40 78.95-3.40L78.95-3.40Q78.75-3.36 78.52-3.16L78.52-3.16Q78.24-3.16 78.09-3.13Q77.93-3.09 77.62-2.89L77.62-2.89L77.19-2.97Q76.88-2.81 76.68-2.81L76.68-2.81Q76.37-2.70 76.09-2.70L76.09-2.70Q75.78-2.66 75.63-2.66Q75.47-2.66 75.35-2.62L75.35-2.62Q74.88-2.54 74.79-2.54Q74.69-2.54 74.61-2.54L74.61-2.54Q73.83-2.46 73.40-2.62L73.40-2.62Q73.01-2.70 72.85-2.73L72.85-2.73Q72.73-2.34 72.81-2.11L72.81-2.11Q72.85-1.76 72.85-1.62Q72.85-1.48 72.81-1.37L72.81-1.37Q72.73-1.05 72.71-1.00Q72.70-0.94 72.70-0.86L72.70-0.86Q72.70-0.66 72.71-0.55Q72.73-0.43 72.73-0.27L72.73-0.27Q72.66 0.04 72.68 0.31Q72.70 0.59 72.73 0.74L72.73 0.74Q72.77 1.13 72.77 1.25Q72.77 1.37 72.77 1.45L72.77 1.45Q72.77 1.99 72.75 2.13Q72.73 2.27 72.73 2.34L72.73 2.34Q72.81 3.01 72.87 3.44Q72.93 3.87 72.85 4.26L72.85 4.26Q72.85 4.53 72.91 4.77Q72.97 5 73.16 5.43L73.16 5.43Q73.32 5.55 73.42 5.55Q73.52 5.55 73.75 5.39L73.75 5.39Q74.18 5.59 74.26 5.59L74.26 5.59Q74.69 5.63 74.82 5.66Q74.96 5.70 75.04 5.78L75.04 5.78Q75.43 6.21 75.55 6.39Q75.66 6.56 75.90 6.88L75.90 6.88Q75.78 7.23 75.72 7.38Q75.66 7.54 75.59 7.73L75.59 7.73Q75.23 8.16 75.10 8.28Q74.96 8.40 74.65 8.67L74.65 8.67Q74.34 8.63 74.22 8.65Q74.10 8.67 73.98 8.67L73.98 8.67Q73.75 8.71 73.52 8.63L73.52 8.63Q73.32 8.67 73.18 8.69Q73.05 8.71 72.97 8.71L72.97 8.71Q72.73 8.79 72.40 8.79Q72.07 8.79 71.70 8.77Q71.33 8.75 70.98 8.73Q70.63 8.71 70.43 8.67L70.43 8.67Q70.08 8.75 69.75 8.79Q69.41 8.83 69.10 8.75L69.10 8.75Q68.95 8.79 68.77 8.75Q68.59 8.71 68.40 8.63L68.40 8.63Q68.20 8.55 67.97 8.48L67.97 8.48L67.66 8.16Q67.54 8.05 67.44 7.95Q67.34 7.85 67.38 7.81L67.38 7.81L67.38 7.38Q67.42 7.23 67.48 7.13Q67.54 7.03 67.62 6.91L67.62 6.91Q67.85 6.56 67.91 6.48Q67.97 6.41 67.97 6.37L67.97 6.37Q68.05 6.33 68.09 6.27Q68.13 6.21 68.32 6.02L68.32 6.02Q68.63 5.94 68.75 5.90Q68.87 5.86 69.02 5.78L69.02 5.78Q69.26 5.82 69.32 5.82Q69.38 5.82 69.45 5.78L69.45 5.78Q69.61 5.47 69.61 5.29Q69.61 5.12 69.61 4.88L69.61 4.88Q69.53 4.30 69.57 4.02Q69.61 3.75 69.61 3.55L69.61 3.55Q69.61 3.28 69.59 3.03Q69.57 2.77 69.53 2.50L69.53 2.50Q69.49 2.19 69.47 1.91Q69.45 1.64 69.49 1.33L69.49 1.33L69.49 0.20Q69.45-0.08 69.45-0.18Q69.45-0.27 69.45-0.35L69.45-0.35Q69.41-0.55 69.41-0.70Q69.41-0.86 69.41-1.05L69.41-1.05Q69.53-1.72 69.49-2.34Q69.45-2.97 69.38-3.13L69.38-3.13Q69.41-3.40 69.43-3.87Q69.45-4.34 69.45-4.82Q69.45-5.31 69.43-5.76Q69.41-6.21 69.41-6.48L69.41-6.48Q69.41-6.84 69.39-6.95Q69.38-7.07 69.38-7.15L69.38-7.15L69.38-8.20Q69.41-8.59 69.38-9.06L69.38-9.06L69.22-9.53Q69.22-9.61 69.24-9.90Q69.26-10.20 69.26-10.31L69.26-10.31Q69.18-10.70 69.18-10.98Q69.18-11.25 69.18-11.52L69.18-11.52Q69.18-11.72 69.20-11.91Q69.22-12.11 69.22-12.30L69.22-12.30Q69.18-13.20 69.18-14.04Q69.18-14.88 69.18-15.74L69.18-15.74Q68.63-15.59 68.36-15.63L68.36-15.63Q68.09-15.63 68.01-15.61Q67.93-15.59 67.85-15.59L67.85-15.59Q67.50-15.55 67.19-15.78L67.19-15.78Q67.03-15.78 66.84-15.84Q66.64-15.90 66.48-16.09L66.48-16.09Q66.29-16.29 66.29-16.54Q66.29-16.80 66.33-16.95L66.33-16.95Q66.33-17.30 66.33-17.44Q66.33-17.58 66.41-17.70L66.41-17.70Q66.52-18.01 66.58-18.09Q66.64-18.16 66.72-18.24L66.72-18.24Q66.99-18.48 67.27-18.73Q67.54-18.98 67.97-18.98L67.97-18.98Q68.16-19.18 68.52-19.14L68.52-19.14Q68.95-19.30 69.02-19.32Q69.10-19.34 69.14-19.34L69.14-19.34Q69.49-19.41 69.65-19.41Q69.80-19.41 69.88-19.41L69.88-19.41L70.31-19.41Q70.63-19.53 70.70-19.55Q70.78-19.57 70.82-19.57L70.82-19.57Q71.25-19.65 71.35-19.65Q71.45-19.65 71.48-19.65L71.48-19.65L72.15-19.65Q72.70-19.65 72.91-19.63Q73.13-19.61 73.24-19.61L73.24-19.61Q73.48-19.57 73.55-19.57Q73.63-19.57 73.71-19.57L73.71-19.57Q74.10-19.61 74.22-19.61Q74.34-19.61 74.41-19.57L74.41-19.57Q74.49-19.53 74.61-19.55Q74.73-19.57 74.80-19.57L74.80-19.57L74.96-19.57L75.20-19.49Q75.43-19.41 75.51-19.41L75.51-19.41Q75.78-19.45 75.84-19.45Q75.90-19.45 75.98-19.41L75.98-19.41Q76.13-19.38 76.25-19.34Q76.37-19.30 76.48-19.26L76.48-19.26Q76.56-19.22 76.64-19.20Q76.72-19.18 76.99-19.22L76.99-19.22Q77.07-19.14 77.19-19.10Q77.30-19.06 77.50-18.98L77.50-18.98Q77.66-18.91 77.93-18.87L77.93-18.87Q78.05-18.79 78.20-18.71L78.20-18.71Q78.44-18.59 78.59-18.59L78.59-18.59Q78.71-18.40 78.77-18.34Q78.83-18.28 78.87-18.24L78.87-18.24Q78.95-18.16 79.06-18.11Q79.18-18.05 79.30-17.97L79.30-17.97Q79.65-17.77 79.75-17.71Q79.84-17.66 79.88-17.62L79.88-17.62Q80.20-17.42 80.25-17.38Q80.31-17.34 80.35-17.30L80.35-17.30Q80.47-17.23 80.59-17.13Q80.70-17.03 80.78-16.88L80.78-16.88Q81.17-16.64 81.37-16.48L81.37-16.48Q81.76-16.13 81.76-16.05L81.76-16.05L82.23-15.59Q82.38-15.16 82.56-14.84Q82.73-14.53 83.05-14.22L83.05-14.22Q83.05-13.98 83.24-13.71L83.24-13.71Q83.36-13.55 83.48-13.48L83.48-13.48L83.79-12.73Q83.87-12.34 83.95-11.99L83.95-11.99Q84.02-11.68 84.04-11.39Q84.06-11.09 84.06-10.90L84.06-10.90Q84.14-10.39 84.16-10.18Q84.18-9.96 84.18-9.77ZM80.66-9.30L80.74-9.65L80.74-10.08Q80.63-10.63 80.59-10.86Q80.55-11.09 80.51-11.25L80.51-11.25Q80.35-11.68 80.12-12.15Q79.88-12.62 79.73-12.81L79.73-12.81Q79.57-13.09 79.53-13.16Q79.49-13.24 79.45-13.28L79.45-13.28Q79.26-13.52 79.20-13.59Q79.14-13.67 79.10-13.71L79.10-13.71Q78.79-13.95 78.67-14.02Q78.55-14.10 78.48-14.18L78.48-14.18Q78.24-14.41 78.18-14.47Q78.13-14.53 78.05-14.57L78.05-14.57Q77.50-14.96 77.13-15.29Q76.76-15.63 76.33-15.51L76.33-15.51Q76.13-15.70 75.72-15.78Q75.31-15.86 75.04-15.90L75.04-15.90Q74.73-15.98 74.47-15.98Q74.22-15.98 74.02-16.05L74.02-16.05Q73.71-16.09 73.63-16.07Q73.55-16.05 73.44-16.05L73.44-16.05Q73.24-16.13 73.14-16.11Q73.05-16.09 72.97-16.09L72.97-16.09Q72.77-16.05 72.66-16.02Q72.54-15.98 72.34-16.05L72.34-16.05Q72.23-15.90 72.19-15.51Q72.15-15.12 72.15-14.71Q72.15-14.30 72.19-13.95Q72.23-13.59 72.23-13.52L72.23-13.52Q72.27-13.16 72.27-13.09Q72.27-13.01 72.27-12.97L72.27-12.97Q72.30-12.58 72.32-12.40Q72.34-12.23 72.30-12.07L72.30-12.07Q72.38-11.68 72.32-11.31Q72.27-10.94 72.27-10.78L72.27-10.78Q72.38-10.47 72.34-10.16L72.34-10.16Q72.34-9.96 72.36-9.80Q72.38-9.65 72.42-9.45L72.42-9.45Q72.46-9.18 72.50-8.95Q72.54-8.71 72.54-8.48L72.54-8.48L72.54-6.88Q72.54-6.68 72.62-6.37L72.62-6.37Q73.01-6.13 73.22-6.11Q73.44-6.09 73.59-6.13L73.59-6.13Q73.83-6.05 73.95-6.07Q74.06-6.09 74.22-6.02L74.22-6.02Q74.34-5.98 74.45-5.98Q74.57-5.98 74.69-5.94L74.69-5.94Q75-6.05 75.27-5.98L75.27-5.98Q75.63-6.05 75.74-6.07Q75.86-6.09 75.94-6.13L75.94-6.13Q76.45-6.21 76.58-6.23Q76.72-6.25 76.76-6.25L76.76-6.25Q76.91-6.33 76.97-6.33Q77.03-6.33 77.19-6.37L77.19-6.37Q77.38-6.41 77.48-6.43Q77.58-6.45 77.70-6.45L77.70-6.45Q78.01-6.64 78.40-6.64L78.40-6.64Q78.71-6.80 78.85-6.84Q78.98-6.88 79.06-6.95L79.06-6.95Q79.30-7.19 79.49-7.23L79.49-7.23Q79.57-7.34 79.67-7.48Q79.77-7.62 79.92-7.70L79.92-7.70Q80-7.85 80.06-7.97Q80.12-8.09 80.20-8.16L80.20-8.16Q80.23-8.24 80.35-8.44Q80.47-8.63 80.47-8.71L80.47-8.71Q80.51-9.10 80.66-9.30L80.66-9.30Z M106.09-16.05L106.09-16.05Q106.09-15.78 105.94-15.63L105.94-15.63Q105.86-15.55 105.82-15.47Q105.78-15.39 105.70-15.31L105.70-15.31Q105.63-15.20 105.59-15.12L105.59-15.12Q105.43-15.08 105.27-15L105.27-15Q104.96-14.84 104.80-14.84L104.80-14.84Q104.49-14.92 104.39-14.92Q104.30-14.92 104.22-14.92L104.22-14.92Q103.91-14.77 103.79-14.77Q103.67-14.77 103.59-14.80L103.59-14.80Q103.59-14.14 103.55-14.02L103.55-14.02Q103.48-13.55 103.46-13.46Q103.44-13.36 103.44-13.28L103.44-13.28Q103.44-13.09 103.44-12.95Q103.44-12.81 103.36-12.62L103.36-12.62Q103.40-12.38 103.40-12.23Q103.40-12.07 103.40-11.95L103.40-11.95Q103.40-11.84 103.40-11.70Q103.40-11.56 103.36-11.45L103.36-11.45Q103.40-11.33 103.42-11.19Q103.44-11.05 103.40-10.94L103.40-10.94Q103.48-10.70 103.48-10.51L103.48-10.51Q103.44-10.16 103.42-10.04Q103.40-9.92 103.36-9.84L103.36-9.84Q103.32-9.57 103.30-9.49Q103.28-9.41 103.24-9.34L103.24-9.34Q103.24-9.14 103.22-8.91Q103.20-8.67 103.20-8.28L103.20-8.28Q103.20-8.05 103.22-7.85Q103.24-7.66 103.24-7.42L103.24-7.42Q103.20-6.99 103.16-6.95L103.16-6.95Q103.24-6.68 103.24-6.45Q103.24-6.21 103.28-6.05L103.28-6.05Q103.28-5.51 103.16-5.23L103.16-5.23Q103.20-4.73 103.16-4.53L103.16-4.53Q103.24-4.22 103.16-4.02L103.16-4.02L103.16-3.20Q103.16-3.13 103.16-2.99Q103.16-2.85 103.13-2.66L103.13-2.66Q103.13-2.54 103.11-2.40Q103.09-2.27 103.09-2.19L103.09-2.19L103.09-1.95L103.05-1.33L103.05-1.05Q103.05-0.86 102.97-0.63L102.97-0.63L102.73-0.20Q102.73-0.04 102.71 0.10Q102.70 0.23 102.62 0.39L102.62 0.39Q102.66 0.70 102.60 0.88Q102.54 1.05 102.46 1.21L102.46 1.21Q102.46 1.25 102.44 1.33Q102.42 1.41 102.42 1.48L102.42 1.48Q102.38 1.60 102.38 1.68L102.38 1.68L102.19 1.99Q102.19 2.11 102.15 2.23Q102.11 2.34 102.07 2.42L102.07 2.42Q101.88 2.85 101.82 3.03Q101.76 3.20 101.72 3.28L101.72 3.28Q101.52 3.59 101.46 3.69Q101.41 3.79 101.37 3.87L101.37 3.87Q101.21 4.06 101.13 4.12Q101.05 4.18 100.98 4.26L100.98 4.26Q100.70 4.53 100.70 4.53L100.70 4.53Q100.70 4.53 100.59 4.61L100.59 4.61Q100.31 4.92 100.23 5Q100.16 5.08 100.08 5.12L100.08 5.12Q100 5.20 99.98 5.23Q99.96 5.27 99.88 5.31L99.88 5.31Q99.80 5.35 99.77 5.39L99.77 5.39L99.41 5.63L98.95 5.86Q98.63 6.02 98.57 6.04Q98.52 6.05 98.44 6.05L98.44 6.05Q97.85 6.29 97.64 6.33Q97.42 6.37 97.30 6.41L97.30 6.41Q96.95 6.41 96.88 6.43Q96.80 6.45 96.68 6.56L96.68 6.56Q96.37 6.60 96.29 6.60Q96.21 6.60 96.13 6.60L96.13 6.60Q95.78 6.76 95.31 6.68L95.31 6.68Q95.16 6.72 94.96 6.72Q94.77 6.72 94.57 6.64L94.57 6.64Q94.38 6.64 94.28 6.60Q94.18 6.56 94.10 6.52L94.10 6.52Q93.79 6.48 93.65 6.46Q93.52 6.45 93.44 6.41L93.44 6.41Q92.89 6.33 92.70 6.25Q92.50 6.17 92.42 6.09L92.42 6.09Q92.30 6.02 92.15 5.98Q91.99 5.94 91.84 5.78L91.84 5.78Q91.60 5.66 91.45 5.57Q91.29 5.47 91.17 5.27L91.17 5.27Q91.05 5.20 90.94 5.18Q90.82 5.16 90.74 5.04L90.74 5.04Q90.47 4.84 90.43 4.61L90.43 4.61L90.12 4.30Q89.88 4.02 89.82 3.89Q89.77 3.75 89.57 3.67L89.57 3.67Q89.49 3.48 89.38 3.28L89.38 3.28Q89.30 3.16 89.22 3.13L89.22 3.13Q89.22 2.97 89.18 2.81L89.18 2.81Q89.14 2.62 88.91 2.30L88.91 2.30Q88.87 1.88 88.79 1.52L88.79 1.52Q88.75 1.25 88.73 1.13Q88.71 1.02 88.71 0.94Q88.71 0.86 88.71 0.80Q88.71 0.74 88.71 0.55L88.71 0.55Q88.71 0.31 88.69 0.14Q88.67-0.04 88.67-0.20L88.67-0.20L88.75-0.66L88.98-0.90Q89.22-1.13 89.22-1.13L89.22-1.13Q89.65-1.37 89.80-1.39Q89.96-1.41 90.16-1.33L90.16-1.33Q90.39-1.25 90.49-1.25Q90.59-1.25 90.66-1.21L90.66-1.21L91.29-0.94Q91.41-0.78 91.48-0.63L91.48-0.63Q91.56-0.51 91.60-0.39Q91.64-0.27 91.68-0.23L91.68-0.23Q91.76 0 91.80 0.08L91.80 0.08Q91.84 0.16 91.84 0.20L91.84 0.20Q91.84 0.31 91.88 0.39L91.88 0.39Q91.88 0.43 91.89 0.45Q91.91 0.47 91.91 0.51L91.91 0.51Q91.91 0.55 91.95 0.59L91.95 0.59Q91.99 0.66 92.05 0.82Q92.11 0.98 92.07 1.17L92.07 1.17Q92.15 1.48 92.29 1.72Q92.42 1.95 92.50 2.11L92.50 2.11Q92.66 2.27 92.71 2.34Q92.77 2.42 92.85 2.46L92.85 2.46Q93.01 2.73 93.05 2.77Q93.09 2.81 93.13 2.85L93.13 2.85Q93.59 3.05 94.06 3.32L94.06 3.32Q94.49 3.24 95 3.40L95 3.40L96.17 3.13Q96.45 3.05 96.60 3.03Q96.76 3.01 96.84 2.97L96.84 2.97Q97.11 2.81 97.15 2.79Q97.19 2.77 97.23 2.77L97.23 2.77Q97.58 2.58 97.70 2.54Q97.81 2.50 97.89 2.46L97.89 2.46Q98.20 2.27 98.26 2.19Q98.32 2.11 98.36 2.03L98.36 2.03Q98.59 1.72 98.67 1.58Q98.75 1.45 98.79 1.25L98.79 1.25L99.14 0.55Q99.22 0.35 99.26 0.25Q99.30 0.16 99.34 0.08L99.34 0.08Q99.41-0.23 99.41-0.31Q99.41-0.39 99.41-0.47L99.41-0.47Q99.45-0.90 99.49-1.07Q99.53-1.25 99.61-1.37L99.61-1.37Q99.69-1.80 99.75-1.95Q99.80-2.11 99.84-2.30L99.84-2.30Q99.92-2.54 99.92-2.62Q99.92-2.70 99.92-2.77L99.92-2.77Q99.92-3.09 100.04-3.44L100.04-3.44Q100-3.67 100-3.73Q100-3.79 100-3.87L100-3.87Q99.69-3.71 99.57-3.65Q99.45-3.59 99.34-3.59L99.34-3.59Q98.95-3.32 98.73-3.22Q98.52-3.13 98.28-3.09L98.28-3.09Q97.42-3.05 96.84-2.81L96.84-2.81Q96.68-2.73 96.54-2.71Q96.41-2.70 96.21-2.70L96.21-2.70Q95.78-2.66 95.43-2.66Q95.08-2.66 94.80-2.89L94.80-2.89L93.79-2.93L92.97-3.13Q92.81-3.20 92.73-3.24Q92.66-3.28 92.58-3.36L92.58-3.36Q92.38-3.40 92.07-3.55L92.07-3.55Q91.76-3.79 91.68-3.85Q91.60-3.91 91.56-3.91L91.56-3.91Q91.37-3.98 91.19-4.04Q91.02-4.10 90.90-4.22L90.90-4.22Q90.82-4.30 90.76-4.36Q90.70-4.41 90.51-4.49L90.51-4.49Q90.31-4.80 90.27-4.86Q90.23-4.92 90.20-5L90.20-5Q89.73-5.47 89.57-5.78L89.57-5.78Q89.38-5.98 89.32-6.05Q89.26-6.13 89.22-6.21L89.22-6.21Q88.98-6.56 88.93-6.72Q88.87-6.88 88.79-6.99L88.79-6.99Q88.55-7.27 88.52-7.34Q88.48-7.42 88.48-7.46L88.48-7.46Q88.32-7.70 88.32-7.89Q88.32-8.09 88.28-8.16L88.28-8.16Q88.09-8.71 88.05-8.87Q88.01-9.02 87.97-9.10L87.97-9.10Q87.89-9.26 87.89-9.45L87.89-9.45L87.89-9.69Q87.85-9.77 87.85-9.92L87.85-9.92Q87.77-10.16 87.85-10.31L87.85-10.31Q87.81-10.51 87.79-10.70Q87.77-10.90 87.85-11.13L87.85-11.13Q87.81-11.33 87.81-11.45Q87.81-11.56 87.81-11.68L87.81-11.68L87.70-12.50Q87.62-12.77 87.66-13.01L87.66-13.01Q87.38-13.05 87.27-13.01Q87.15-12.97 86.84-12.89L86.84-12.89Q86.41-12.89 86.25-12.91Q86.09-12.93 85.94-13.01L85.94-13.01L85.08-13.36L84.69-13.63Q84.41-13.98 84.34-14.24Q84.26-14.49 84.26-14.73L84.26-14.73Q84.26-14.80 84.26-14.94Q84.26-15.08 84.30-15.16L84.30-15.16Q84.30-15.27 84.34-15.35L84.34-15.35Q84.38-15.43 84.45-15.51L84.45-15.51Q84.53-15.59 84.55-15.64Q84.57-15.70 84.65-15.70L84.65-15.70Q85.16-16.02 85.47-16.07Q85.78-16.13 85.98-16.13L85.98-16.13Q86.29-16.17 86.35-16.17Q86.41-16.17 86.45-16.17L86.45-16.17Q86.72-16.29 86.99-16.29L86.99-16.29Q87.19-16.33 87.29-16.35Q87.38-16.37 87.50-16.37L87.50-16.37Q87.81-16.29 87.87-16.29Q87.93-16.29 88.01-16.29L88.01-16.29Q88.09-16.25 88.24-16.29Q88.40-16.33 88.59-16.37L88.59-16.37Q88.79-16.41 89.02-16.45L89.02-16.45Q89.26-16.41 89.41-16.41L89.41-16.41Q89.57-16.37 89.67-16.37Q89.77-16.37 89.80-16.37L89.80-16.37Q90.31-16.45 90.70-16.45Q91.09-16.45 91.33-16.52L91.33-16.52Q91.41-16.56 91.54-16.58Q91.68-16.60 91.84-16.64L91.84-16.64Q91.99-16.68 92.19-16.68L92.19-16.68Q92.30-16.68 92.46-16.64L92.46-16.64Q92.58-16.60 92.71-16.58Q92.85-16.56 92.93-16.52L92.93-16.52Q93.16-16.37 93.28-16.37L93.28-16.37Q93.36-16.33 93.44-16.37L93.44-16.37Q93.48-16.29 93.55-16.17L93.55-16.17Q93.71-15.94 93.71-15.90L93.71-15.90Q93.87-15.59 93.89-15.51Q93.91-15.43 93.91-15.39L93.91-15.39Q94.06-15.08 93.98-14.80L93.98-14.80Q93.91-14.53 93.91-14.43Q93.91-14.34 93.91-14.14L93.91-14.14Q93.67-13.87 93.57-13.77Q93.48-13.67 93.40-13.55L93.40-13.55Q93.20-13.52 93.14-13.48Q93.09-13.44 92.97-13.24L92.97-13.24L91.95-13.24Q91.80-13.20 91.66-13.18Q91.52-13.16 91.33-13.01L91.33-13.01Q91.25-12.58 91.29-12.19Q91.33-11.80 91.21-11.48L91.21-11.48Q91.25-11.33 91.29-11.25Q91.33-11.17 91.33-11.09L91.33-11.09L91.33-10.94Q91.29-10.82 91.29-10.74L91.29-10.74Q91.29-10.66 91.27-10.61Q91.25-10.55 91.25-10.51L91.25-10.51Q91.29-10.27 91.31-10.16Q91.33-10.04 91.37-9.92L91.37-9.92Q91.37-9.69 91.29-9.45L91.29-9.45Q91.33-9.38 91.37-9.22Q91.41-9.06 91.48-8.95L91.48-8.95Q91.56-8.79 91.64-8.63L91.64-8.63Q91.72-8.44 91.80-8.28L91.80-8.28Q91.88-8.13 91.89-8.01Q91.91-7.89 91.95-7.85L91.95-7.85Q92.15-7.54 92.21-7.50Q92.27-7.46 92.34-7.42L92.34-7.42L92.77-6.99Q93.05-6.60 93.52-6.43Q93.98-6.25 94.30-6.33L94.30-6.33Q94.49-6.21 94.57-6.19Q94.65-6.17 94.73-6.17L94.73-6.17Q95.08-6.21 95.25-6.17Q95.43-6.13 95.51-6.09L95.51-6.09Q95.86-6.05 95.98-6.07Q96.09-6.09 96.13-6.13L96.13-6.13Q96.52-6.21 96.62-6.23Q96.72-6.25 96.80-6.29L96.80-6.29Q97.23-6.45 97.50-6.41L97.50-6.41Q97.81-6.72 97.91-6.74Q98.01-6.76 98.05-6.76L98.05-6.76Q98.24-6.91 98.32-6.99Q98.40-7.07 98.48-7.15L98.48-7.15Q98.67-7.27 98.79-7.32Q98.91-7.38 98.98-7.46L98.98-7.46Q99.06-7.58 99.14-7.70Q99.22-7.81 99.30-7.89L99.30-7.89Q99.45-8.44 99.57-8.59Q99.69-8.75 99.73-8.83L99.73-8.83Q99.92-9.38 99.92-9.49L99.92-9.49Q99.92-9.53 99.90-9.63Q99.88-9.73 99.88-9.80L99.88-9.80Q99.84-9.92 99.84-10.04L99.84-10.04Q99.88-10.16 99.92-10.31L99.92-10.31Q99.96-10.39 99.96-10.49Q99.96-10.59 100-10.63L100-10.63L100-11.56Q100.04-11.76 100.04-11.93Q100.04-12.11 100.04-12.23L100.04-12.23Q99.96-12.54 99.96-12.70L99.96-12.70Q99.96-12.81 99.96-13.09Q99.96-13.36 100.04-13.55L100.04-13.55Q100.12-13.87 100.14-13.96Q100.16-14.06 100.23-14.18L100.23-14.18L100.23-14.80Q99.92-14.80 99.77-14.79Q99.61-14.77 99.41-14.77L99.41-14.77Q99.02-14.69 98.87-14.69Q98.71-14.69 98.52-14.77L98.52-14.77L97.73-14.96L97.15-15.55Q97.11-15.82 97.03-16.05L97.03-16.05Q96.95-16.25 96.91-16.45Q96.88-16.64 96.91-16.76L96.91-16.76Q96.91-16.84 96.99-17.15L96.99-17.15Q97.03-17.30 97.07-17.42L97.07-17.42Q97.19-17.50 97.30-17.62L97.30-17.62Q97.50-17.81 97.70-17.89L97.70-17.89Q98.20-18.05 98.50-18.05Q98.79-18.05 98.98-18.05L98.98-18.05Q99.41-18.01 99.65-18.05L99.65-18.05Q99.80-18.09 99.94-18.13Q100.08-18.16 100.20-18.13L100.20-18.13Q100.47-18.24 100.74-18.09L100.74-18.09Q101.37-18.20 101.37-18.20L101.37-18.20Q101.52-18.28 101.60-18.28Q101.68-18.28 101.84-18.36L101.84-18.36Q102.27-18.32 102.42-18.36L102.42-18.36Q102.54-18.36 102.77-18.38Q103.01-18.40 103.20-18.28L103.20-18.28Q103.40-18.36 103.59-18.32Q103.79-18.28 103.95-18.20L103.95-18.20L104.38-18.20Q104.53-18.20 104.65-18.24L104.65-18.24L104.88-18.09Q105.12-17.93 105.23-17.93L105.23-17.93Q105.27-17.93 105.35-17.89Q105.43-17.85 105.51-17.81L105.51-17.81L105.66-17.73L105.82-17.46Q106.45-16.72 106.09-16.05Z M137.93-3.28L137.93-3.28Q137.73-3.09 137.70-2.97Q137.66-2.85 137.66-2.54L137.66-2.54L136.64-1.41Q136.29-1.37 136.19-1.35Q136.09-1.33 136.02-1.33L136.02-1.33Q135.86-1.33 135.66-1.31Q135.47-1.29 135.27-1.33L135.27-1.33Q135-1.21 134.77-1.29L134.77-1.29Q134.41-1.37 134.34-1.37Q134.26-1.37 134.22-1.37L134.22-1.37Q133.95-1.37 133.79-1.41L133.79-1.41Q133.48-1.37 133.07-1.35Q132.66-1.33 132.50-1.33L132.50-1.33Q131.76-1.41 131.46-1.37Q131.17-1.33 130.94-1.33L130.94-1.33Q130.82-1.33 130.70-1.35Q130.59-1.37 130.47-1.37L130.47-1.37Q130.43-1.37 130.27-1.29L130.27-1.29L130.12-1.21L129.69-1.21Q129.49-1.25 129.38-1.25Q129.26-1.25 129.14-1.29L129.14-1.29Q128.98-1.25 128.85-1.21Q128.71-1.17 128.52-1.17L128.52-1.17Q128.24-1.17 128.13-1.15Q128.01-1.13 127.93-1.09L127.93-1.09Q127.27-1.09 127.15-1.13L127.15-1.13Q126.80-1.05 126.33-0.98L126.33-0.98L125.70-0.98Q125.27-0.94 125.12-0.94Q124.96-0.94 124.80-0.98L124.80-0.98L124.10-0.90Q123.75-0.94 123.65-0.94Q123.55-0.94 123.48-0.98L123.48-0.98Q123.40-0.98 123.32-0.96Q123.24-0.94 122.93-0.74L122.93-0.74Q122.54-0.86 122.46-0.88Q122.38-0.90 122.34-0.90L122.34-0.90Q122.03-0.78 121.86-0.76Q121.68-0.74 121.56-0.74L121.56-0.74L120.31-0.51Q120.12-0.63 120.06-0.66Q120-0.70 119.92-0.78L119.92-0.78Q119.53-1.09 119.45-1.15Q119.38-1.21 119.30-1.29L119.30-1.29Q119.10-1.48 118.95-1.68Q118.79-1.88 118.75-2.19L118.75-2.19Q118.71-2.50 118.83-2.77L118.83-2.77Q118.87-2.85 118.91-2.99Q118.95-3.13 119.10-3.44L119.10-3.44Q119.34-3.59 119.45-3.65Q119.57-3.71 119.80-3.91L119.80-3.91Q120.08-3.91 120.20-3.93Q120.31-3.95 120.47-3.98L120.47-3.98Q120.70-4.02 120.78-4.02Q120.86-4.02 120.90-4.02L120.90-4.02Q121.09-4.10 121.23-4.10Q121.37-4.10 121.48-4.14L121.48-4.14Q121.64-4.14 121.78-4.12Q121.91-4.10 122.03-4.14L122.03-4.14L122.03-4.57L122.03-5Q122.03-5.43 122.01-5.53Q121.99-5.63 121.95-5.70L121.95-5.70Q121.88-6.09 121.89-6.23Q121.91-6.37 121.95-6.45L121.95-6.45Q121.80-6.76 121.95-7.07L121.95-7.07Q121.91-7.19 121.89-7.29Q121.88-7.38 121.88-7.58L121.88-7.58Q122.03-8.16 121.84-8.87L121.84-8.87Q121.80-9.22 121.80-9.36Q121.80-9.49 121.88-9.61L121.88-9.61Q121.76-9.96 121.88-10.35L121.88-10.35Q121.80-10.63 121.80-10.72Q121.80-10.82 121.80-10.90L121.80-10.90Q121.84-11.21 121.84-11.29Q121.84-11.37 121.84-11.41L121.84-11.41Q121.72-11.91 121.72-12.11L121.72-12.11Q121.72-12.42 121.70-12.48Q121.68-12.54 121.68-12.58L121.68-12.58Q121.64-12.89 121.68-13.01Q121.72-13.13 121.72-13.20L121.72-13.20Q121.76-13.44 121.76-13.57Q121.76-13.71 121.80-13.83L121.80-13.83Q121.88-14.14 121.88-14.41Q121.88-14.69 121.88-14.92L121.88-14.92Q121.88-15.20 121.86-15.29Q121.84-15.39 121.84-15.47L121.84-15.47Q121.84-15.59 121.86-15.76Q121.88-15.94 121.95-16.13L121.95-16.13Q121.91-16.29 121.91-16.56L121.91-16.56L121.91-16.80L121.99-16.95Q122.07-17.11 122.07-17.11L122.07-17.11Q122.15-17.50 122.15-17.71Q122.15-17.93 122.15-18.01L122.15-18.01Q122.03-18.48 122.07-18.63L122.07-18.63Q121.99-18.87 121.99-19.06L121.99-19.06L121.99-20.35Q121.88-20.78 121.95-21.09L121.95-21.09Q121.91-21.80 122.07-22.07L122.07-22.07Q122.07-22.46 122.11-22.62L122.11-22.62Q122.19-22.93 122.19-23.13L122.19-23.13Q122.19-23.52 122.23-23.67L122.23-23.67Q122.23-24.06 122.27-24.22L122.27-24.22Q122.27-24.30 122.23-24.41Q122.19-24.53 121.99-24.73L121.99-24.73Q121.68-24.69 121.50-24.63Q121.33-24.57 121.05-24.45L121.05-24.45Q120.86-24.53 120.78-24.53Q120.70-24.53 120.63-24.57L120.63-24.57Q120.08-24.77 119.90-24.90Q119.73-25.04 119.65-25.12L119.65-25.12Q119.18-25.59 119.14-25.78L119.14-25.78Q118.95-26.13 118.95-26.46Q118.95-26.80 119.02-27.19L119.02-27.19Q119.45-27.38 119.45-27.38L119.45-27.38Q119.69-27.58 119.88-27.64Q120.08-27.70 120.27-27.73L120.27-27.73Q120.43-27.81 120.49-27.83Q120.55-27.85 120.66-27.93L120.66-27.93Q121.13-28.01 121.35-28.01Q121.56-28.01 121.76-28.05L121.76-28.05Q122.15-28.16 122.30-28.16Q122.46-28.16 122.54-28.16L122.54-28.16Q122.77-28.13 123.05-28.20L123.05-28.20Q123.16-28.24 123.24-28.24L123.24-28.24L123.71-28.24Q124.06-28.28 124.20-28.28Q124.34-28.28 124.45-28.24L124.45-28.24Q124.77-28.32 124.88-28.36Q125-28.40 125.20-28.44L125.20-28.44Q125.74-28.52 125.98-28.48Q126.21-28.44 126.37-28.36L126.37-28.36Q126.41-28.32 126.68-28.32L126.68-28.32Q126.80-28.32 126.91-28.28L126.91-28.28L127.03-28.16Q127.19-28.01 127.23-28.01L127.23-28.01Q127.54-27.93 127.60-27.89Q127.66-27.85 127.70-27.77L127.70-27.77Q127.77-27.58 127.93-27.50L127.93-27.50Q128.01-27.42 128.09-27.42L128.09-27.42Q128.05-27.27 128.05-27.15L128.05-27.15Q128.05-26.88 128.05-26.88L128.05-26.88Q128.05-26.80 128.24-26.37L128.24-26.37Q128.05-26.13 128.03-26.05Q128.01-25.98 127.97-25.94L127.97-25.94Q127.73-25.55 127.58-25.45Q127.42-25.35 127.23-25.27L127.23-25.27Q127.19-25.27 127.11-25.23Q127.03-25.20 126.91-25.16L126.91-25.16Q126.76-25.08 126.60-25.04L126.60-25.04Q126.37-25 126.17-25L126.17-25L125.55-25Q125.59-24.53 125.59-24.39Q125.59-24.26 125.59-24.10L125.59-24.10Q125.59-23.91 125.57-23.71Q125.55-23.52 125.47-23.32L125.47-23.32Q125.47-23.01 125.47-22.81Q125.47-22.62 125.39-22.42L125.39-22.42Q125.39-22.07 125.37-21.91Q125.35-21.76 125.31-21.64L125.31-21.64Q125.39-21.25 125.41-21.09Q125.43-20.94 125.39-20.74L125.39-20.74Q125.39-20.70 125.37-20.61Q125.35-20.51 125.39-20.23L125.39-20.23Q125.43-20.04 125.45-19.86Q125.47-19.69 125.47-19.65L125.47-19.65L125.47-18.95Q125.47-18.87 125.49-18.79Q125.51-18.71 125.55-18.52L125.55-18.52Q125.63-17.77 125.61-17.29Q125.59-16.80 125.43-16.48L125.43-16.48Q125.43-16.29 125.45-16.05Q125.47-15.82 125.47-15.63L125.47-15.63Q125.39-15.47 125.35-15.41Q125.31-15.35 125.31-15.27L125.31-15.27Q125.27-15.20 125.31-15.20L125.31-15.20Q125.23-14.65 125.23-14.41Q125.23-14.18 125.23-13.98L125.23-13.98Q125.23-13.79 125.25-13.59Q125.27-13.40 125.23-13.20L125.23-13.20Q125.20-12.66 125.20-12.50Q125.20-12.34 125.23-12.27L125.23-12.27Q125.23-12.15 125.25-12.05Q125.27-11.95 125.23-11.84L125.23-11.84Q125.31-11.64 125.31-11.48Q125.31-11.33 125.31-11.17L125.31-11.17Q125.23-10.82 125.27-10.55Q125.31-10.27 125.39-9.96L125.39-9.96Q125.39-9.61 125.39-9.47Q125.39-9.34 125.35-9.14L125.35-9.14Q125.31-9.10 125.35-8.93Q125.39-8.75 125.43-8.55L125.43-8.55L125.51-8.01Q125.47-7.62 125.47-7.30L125.47-7.30Q125.43-7.03 125.43-6.78Q125.43-6.52 125.47-6.45L125.47-6.45Q125.55-6.17 125.55-5.98Q125.55-5.78 125.55-5.63L125.55-5.63Q125.59-5.31 125.59-5.27Q125.59-5.23 125.59-5.20L125.59-5.20Q125.66-5 125.68-4.84Q125.70-4.69 125.66-4.45L125.66-4.45Q126.02-4.34 126.15-4.32Q126.29-4.30 126.37-4.26L126.37-4.26L127.15-4.45Q127.46-4.45 127.52-4.45Q127.58-4.45 127.58-4.49L127.58-4.49L128.20-4.49Q128.98-4.61 129.14-4.57L129.14-4.57Q129.34-4.53 129.43-4.55Q129.53-4.57 129.61-4.57L129.61-4.57Q129.80-4.57 129.96-4.57Q130.12-4.57 130.31-4.53L130.31-4.53Q130.39-4.53 130.51-4.55Q130.63-4.57 130.86-4.73L130.86-4.73Q131.09-4.65 131.19-4.67Q131.29-4.69 131.45-4.77L131.45-4.77Q131.76-4.73 131.86-4.71Q131.95-4.69 132.03-4.69L132.03-4.69Q132.38-4.73 132.52-4.69Q132.66-4.65 132.73-4.65L132.73-4.65Q132.93-4.69 133.07-4.71Q133.20-4.73 133.32-4.69L133.32-4.69Q133.59-4.73 133.71-4.75Q133.83-4.77 133.95-4.77L133.95-4.77Q134.22-5.20 134.14-5.63L134.14-5.63L134.02-6.05Q134.14-6.72 134.16-6.93Q134.18-7.15 134.22-7.34L134.22-7.34Q134.22-7.50 134.20-7.64Q134.18-7.77 134.18-7.93L134.18-7.93Q134.18-8.09 134.20-8.26Q134.22-8.44 134.30-8.63L134.30-8.63Q134.30-8.83 134.32-8.95Q134.34-9.06 134.38-9.22L134.38-9.22Q134.34-9.88 134.34-10.10Q134.34-10.31 134.34-10.43L134.34-10.43Q134.34-10.55 134.32-10.66Q134.30-10.78 134.22-11.09L134.22-11.09Q134.30-11.41 134.32-11.52Q134.34-11.64 134.38-11.84L134.38-11.84Q134.57-12.07 134.65-12.17Q134.73-12.27 134.80-12.34L134.80-12.34Q135.08-12.62 135.20-12.68Q135.31-12.73 135.47-12.77L135.47-12.77Q135.82-12.85 136.04-12.83Q136.25-12.81 136.33-12.77L136.33-12.77Q136.76-12.62 136.86-12.58Q136.95-12.54 136.99-12.54L136.99-12.54Q137.19-12.34 137.32-12.23Q137.46-12.11 137.62-11.80L137.62-11.80L137.58-11.33Q137.70-10.98 137.70-10.74L137.70-10.74Q137.70-10.43 137.71-10.31Q137.73-10.20 137.77-10.12L137.77-10.12Q137.70-9.69 137.70-9.55Q137.70-9.41 137.70-9.38L137.70-9.38Q137.73-9.06 137.71-8.96Q137.70-8.87 137.70-8.79L137.70-8.79Q137.66-8.24 137.64-8.07Q137.62-7.89 137.62-7.73L137.62-7.73Q137.66-7.11 137.58-6.88L137.58-6.88Q137.62-6.72 137.64-6.58Q137.66-6.45 137.58-6.25L137.58-6.25Q137.70-5.74 137.73-5.61Q137.77-5.47 137.85-5.31L137.85-5.31Q137.85-5.23 137.87-4.94Q137.89-4.65 137.89-4.32Q137.89-3.98 137.91-3.69Q137.93-3.40 137.93-3.28Z M156.05-7.50L156.05-6.95Q155.98-6.52 155.94-6.41Q155.90-6.29 155.86-6.21L155.86-6.21Q155.66-5.74 155.49-5.55Q155.31-5.35 155.16-5.20L155.16-5.20Q155.08-5.08 155-4.98Q154.92-4.88 154.84-4.80L154.84-4.80Q154.77-4.69 154.69-4.61L154.69-4.61Q154.57-4.53 154.41-4.41L154.41-4.41Q154.10-4.18 153.87-3.95L153.87-3.95Q153.55-3.75 153.46-3.73Q153.36-3.71 153.28-3.71L153.28-3.71Q153.05-3.52 152.97-3.46Q152.89-3.40 152.81-3.40L152.81-3.40Q152.70-3.32 152.62-3.28Q152.54-3.24 152.34-3.09L152.34-3.09Q151.99-3.09 151.89-3.07Q151.80-3.05 151.72-3.05L151.72-3.05Q151.68-3.01 151.60-2.97Q151.52-2.93 151.29-2.73L151.29-2.73Q150.86-2.70 150.76-2.70Q150.66-2.70 150.63-2.70L150.63-2.70Q150.27-2.58 150.20-2.54L150.20-2.54Q149.49-2.42 149.20-2.38Q148.91-2.34 148.59-2.38L148.59-2.38Q148.36-2.34 148.26-2.34Q148.16-2.34 148.09-2.34L148.09-2.34L146.45-2.34Q146.02-2.54 145.90-2.54L145.90-2.54Q145.70-2.62 145.63-2.62Q145.55-2.62 145.47-2.70L145.47-2.70Q145.23-2.77 144.71-3.03Q144.18-3.28 143.95-3.44L143.95-3.44Q143.79-3.55 143.55-3.71L143.55-3.71Q143.44-3.79 143.30-3.89Q143.16-3.98 143.05-4.06L143.05-4.06Q142.89-4.14 142.77-4.22L142.77-4.22L142.27-5Q142.23-5.16 142.15-5.31L142.15-5.31Q142.03-5.55 141.80-5.78L141.80-5.78Q141.76-6.17 141.72-6.21L141.72-6.21Q141.64-6.33 141.56-6.39Q141.48-6.45 141.33-6.60L141.33-6.60Q141.29-6.99 141.25-7.03L141.25-7.03Q141.02-7.70 140.98-8.05L140.98-8.05Q140.90-8.36 140.84-8.54Q140.78-8.71 140.74-8.83L140.74-8.83Q140.70-8.98 140.70-9.02L140.70-9.02Q140.59-9.45 140.57-9.73Q140.55-10 140.55-10.12L140.55-10.12Q140.59-10.35 140.59-10.45Q140.59-10.55 140.59-10.63L140.59-10.63Q140.59-10.90 140.57-10.98Q140.55-11.05 140.55-11.13L140.55-11.13Q140.55-11.21 140.53-11.35Q140.51-11.48 140.59-11.64L140.59-11.64Q140.51-11.95 140.63-12.19L140.63-12.19Q140.63-12.58 140.70-12.73L140.70-12.73L141.05-13.67Q141.09-13.83 141.11-13.96Q141.13-14.10 141.17-14.30L141.17-14.30Q141.21-14.49 141.23-14.69Q141.25-14.88 141.33-15.08L141.33-15.08Q141.45-15.55 141.64-15.78L141.64-15.78Q141.72-15.94 141.78-16.05Q141.84-16.17 141.91-16.29L141.91-16.29Q141.99-16.41 142.09-16.54Q142.19-16.68 142.27-16.80L142.27-16.80L142.58-17.15Q142.85-17.46 142.95-17.58Q143.05-17.70 143.16-17.77L143.16-17.77Q143.32-18.01 143.44-18.11Q143.55-18.20 143.67-18.28L143.67-18.28Q143.98-18.59 144.14-18.73Q144.30-18.87 144.49-18.95L144.49-18.95Q144.65-19.14 144.82-19.28Q145-19.41 145.31-19.49L145.31-19.49Q145.51-19.69 145.57-19.73Q145.63-19.77 145.66-19.80L145.66-19.80Q145.78-19.96 146.09-20.16L146.09-20.16Q146.56-20.31 146.72-20.35L146.72-20.35Q146.99-20.43 147.30-20.43Q147.62-20.43 147.93-20.43L147.93-20.43Q148.20-20.43 148.48-20.41Q148.75-20.39 149.06-20.39L149.06-20.39Q149.34-20.31 149.43-20.33Q149.53-20.35 149.57-20.35L149.57-20.35Q149.84-20.35 149.96-20.33Q150.08-20.31 150.20-20.27L150.20-20.27L150.74-20.04Q151.02-19.96 151.09-19.94Q151.17-19.92 151.25-19.92L151.25-19.92Q151.25-19.92 151.48-19.84L151.48-19.84Q151.60-19.80 151.68-19.77L151.68-19.77Q151.76-19.73 151.88-19.69L151.88-19.69Q152.11-19.61 152.11-19.61L152.11-19.61Q152.66-19.41 153.01-19.16Q153.36-18.91 153.55-18.71L153.55-18.71Q153.79-18.36 153.87-18.22Q153.95-18.09 153.98-18.01L153.98-18.01Q154.18-17.73 154.20-17.64Q154.22-17.54 154.22-17.46L154.22-17.46Q154.41-17.07 154.53-16.88Q154.65-16.68 154.73-16.37L154.73-16.37Q155.04-15.74 155.04-15.51L155.04-15.51Q155.20-15.27 155.27-15.12L155.27-15.12Q155.35-14.92 155.35-14.79Q155.35-14.65 155.35-14.57L155.35-14.57Q155.43-14.30 155.47-14.12Q155.51-13.95 155.55-13.79L155.55-13.79Q155.59-13.52 155.74-13.24L155.74-13.24Q155.82-12.93 155.82-12.77Q155.82-12.62 155.82-12.42L155.82-12.42Q155.74-12.11 155.70-11.88Q155.66-11.64 155.55-11.45L155.55-11.45L155.23-10.82L154.61-10.43Q154.38-10.39 154.22-10.39L154.22-10.39L153.71-10.39Q153.36-10.27 153.20-10.27L153.20-10.27Q153.13-10.23 153.07-10.25Q153.01-10.27 152.93-10.27L152.93-10.27L152.77-10.27L152.23-10.27Q152.11-10.31 151.97-10.31Q151.84-10.31 151.72-10.35L151.72-10.35Q151.56-10.35 151.43-10.33Q151.29-10.31 151.09-10.31L151.09-10.31Q150.35-10.35 150.27-10.39L150.27-10.39Q149.96-10.39 149.73-10.35Q149.49-10.31 149.30-10.31L149.30-10.31Q148.98-10.31 148.69-10.37Q148.40-10.43 148.09-10.51L148.09-10.51Q147.54-10.63 147.19-10.63L147.19-10.63Q147.11-10.63 146.99-10.61Q146.88-10.59 146.72-10.59L146.72-10.59Q146.48-10.63 146.41-10.63Q146.33-10.63 146.25-10.63L146.25-10.63Q146.13-10.63 146.02-10.64Q145.90-10.66 145.78-10.66L145.78-10.66Q145.51-10.66 145.43-10.66Q145.35-10.66 145.27-10.63L145.27-10.63Q145.08-10.59 144.96-10.61Q144.84-10.63 144.77-10.63L144.77-10.63Q144.41-10.66 144.26-10.64Q144.10-10.63 143.98-10.63L143.98-10.63Q143.91-10.43 143.93-10.33Q143.95-10.23 143.95-10.20L143.95-10.20Q144.02-9.92 144.04-9.82Q144.06-9.73 144.06-9.65L144.06-9.65Q144.10-9.45 144.12-9.38Q144.14-9.30 144.22-9.18L144.22-9.18Q144.22-8.59 144.45-8.05Q144.69-7.50 144.84-7.30L144.84-7.30Q144.92-6.99 144.94-6.93Q144.96-6.88 144.96-6.84L144.96-6.84Q145.12-6.72 145.18-6.62Q145.23-6.52 145.31-6.45L145.31-6.45Q145.47-6.25 145.53-6.19Q145.59-6.13 145.66-6.05L145.66-6.05Q145.82-5.98 145.98-5.90Q146.13-5.82 146.21-5.66L146.21-5.66Q146.52-5.66 146.84-5.55L146.84-5.55Q147.07-5.47 147.46-5.43Q147.85-5.39 148.26-5.41Q148.67-5.43 149.04-5.47Q149.41-5.51 149.57-5.55L149.57-5.55Q149.88-5.66 150.14-5.70Q150.39-5.74 150.59-5.82L150.59-5.82Q150.90-5.86 151.13-5.98L151.13-5.98Q151.52-6.25 151.76-6.25L151.76-6.25Q151.99-6.45 152.19-6.48L152.19-6.48Q152.38-6.72 152.64-6.93Q152.89-7.15 152.97-7.27L152.97-7.27Q153.20-7.50 153.32-7.73L153.32-7.73Q153.40-7.89 153.48-7.97L153.48-7.97L153.87-8.36Q153.95-8.40 154.06-8.48L154.06-8.48Q154.30-8.63 154.30-8.63L154.30-8.63Q154.38-8.67 154.47-8.71Q154.57-8.75 154.77-8.83L154.77-8.83Q155.08-8.75 155.21-8.69Q155.35-8.63 155.43-8.55L155.43-8.55Q155.74-8.28 155.80-8.16Q155.86-8.05 155.90-7.97L155.90-7.97Q155.94-7.89 155.96-7.81Q155.98-7.73 156.02-7.66L156.02-7.66Q156.05-7.54 156.05-7.50L156.05-7.50ZM152.50-13.63L152.50-13.63Q152.42-13.98 152.36-14.18Q152.30-14.38 152.23-14.53L152.23-14.53Q152.07-14.84 152.03-14.92Q151.99-15 151.95-15.04L151.95-15.04Q151.80-15.23 151.76-15.47L151.76-15.47Q151.60-15.66 151.46-15.88Q151.33-16.09 151.25-16.25L151.25-16.25Q150.86-16.60 150.82-16.72L150.82-16.72Q150.51-16.84 150.37-16.89Q150.23-16.95 150.16-17.03L150.16-17.03Q149.77-17.15 149.53-17.23Q149.30-17.30 149.10-17.34L149.10-17.34Q148.91-17.38 148.75-17.42L148.75-17.42L148.28-17.34Q148.09-17.30 147.93-17.30Q147.77-17.30 147.70-17.30L147.70-17.30Q147.34-17.15 147.27-17.11Q147.19-17.07 147.11-17.03L147.11-17.03Q146.76-16.84 146.64-16.80Q146.52-16.76 146.45-16.72L146.45-16.72Q146.25-16.52 146.09-16.45L146.09-16.45Q145.82-16.02 145.47-15.63Q145.12-15.23 144.84-15.04L144.84-15.04Q144.73-14.73 144.67-14.61Q144.61-14.49 144.53-14.38L144.53-14.38Q144.45-14.26 144.43-14.14Q144.41-14.02 144.34-13.87L144.34-13.87L144.84-13.87Q145.43-13.98 145.70-13.98L145.70-13.98Q145.90-14.02 145.98-14.02Q146.05-14.02 146.25-14.10L146.25-14.10Q146.52-14.02 146.58-14.00Q146.64-13.98 146.68-14.02L146.68-14.02Q147.11-14.06 147.34-14.04Q147.58-14.02 147.77-13.98L147.77-13.98Q148.13-13.87 148.28-13.87L148.28-13.87Q149.02-13.67 149.65-13.59L149.65-13.59Q149.77-13.55 149.92-13.57Q150.08-13.59 150.23-13.59L150.23-13.59Q150.39-13.59 150.59-13.63L150.59-13.63L151.52-13.63L151.95-13.63Q152.27-13.67 152.34-13.67Q152.42-13.67 152.50-13.63Z M175.98-5.59L176.25-4.73Q176.25-4.45 176.21-4.26L176.21-4.26Q176.17-4.06 176.13-3.89Q176.09-3.71 176.02-3.63L176.02-3.63Q175.94-3.48 175.86-3.40L175.86-3.40Q175.78-3.32 175.70-3.28L175.70-3.28Q175.63-3.20 175.55-3.16L175.55-3.16Q175.51-3.13 175.43-3.13L175.43-3.13Q175.39-3.13 175.35-3.09L175.35-3.09Q174.92-2.89 174.63-2.79Q174.34-2.70 173.91-2.73L173.91-2.73Q173.59-2.81 173.42-2.83Q173.24-2.85 173.09-2.85L173.09-2.85Q172.89-2.85 172.71-2.83Q172.54-2.81 172.34-2.81L172.34-2.81Q172.03-2.85 171.95-2.83Q171.88-2.81 171.84-2.81L171.84-2.81Q171.41-2.89 171.25-2.93Q171.09-2.97 170.98-3.05L170.98-3.05Q170.94-3.05 170.88-3.09Q170.82-3.13 170.74-3.16L170.74-3.16Q170.63-3.20 170.55-3.28L170.55-3.28Q170.47-3.40 170.43-3.55L170.43-3.55Q170.39-3.67 170.35-3.77Q170.31-3.87 170.35-3.91L170.35-3.91Q170.23-4.02 170.29-4.10Q170.35-4.18 170.27-4.41L170.27-4.41Q170.35-4.53 170.29-4.77Q170.23-5 170.20-5.39L170.20-5.39Q169.73-4.96 169.41-4.77Q169.10-4.57 168.87-4.41L168.87-4.41Q168.40-4.18 168.16-3.79L168.16-3.79Q167.73-3.75 167.58-3.67Q167.42-3.59 167.27-3.44L167.27-3.44Q166.95-3.36 166.78-3.32Q166.60-3.28 166.52-3.24L166.52-3.24Q166.05-3.09 165.94-3.05Q165.82-3.01 165.74-3.01L165.74-3.01Q165.51-2.89 165.43-2.87Q165.35-2.85 165.27-2.81L165.27-2.81Q165.12-2.66 164.84-2.58L164.84-2.58Q164.53-2.50 164.14-2.50L164.14-2.50L163.67-2.50L163.13-2.66Q162.93-2.73 162.73-2.77Q162.54-2.81 162.50-2.81L162.50-2.81Q162.30-2.89 162.25-2.89Q162.19-2.89 162.07-2.89L162.07-2.89Q161.76-3.05 161.64-3.07Q161.52-3.09 161.25-3.09L161.25-3.09Q161.09-3.28 160.98-3.32Q160.86-3.36 160.43-3.44L160.43-3.44Q160.23-3.75 160.20-3.81Q160.16-3.87 160.12-3.91L160.12-3.91Q159.53-4.38 159.30-4.69Q159.06-5 158.95-5.31L158.95-5.31Q158.87-5.55 158.79-5.86L158.79-5.86Q158.75-6.02 158.59-6.25L158.59-6.25Q158.52-6.64 158.52-6.86Q158.52-7.07 158.55-7.23L158.55-7.23Q158.55-7.42 158.63-7.75Q158.71-8.09 158.83-8.24Q158.95-8.40 159.02-8.81Q159.10-9.22 159.22-9.41L159.22-9.41Q159.30-9.61 159.49-9.90Q159.69-10.20 159.77-10.35L159.77-10.35L159.96-10.78Q160.16-10.98 160.21-11.07Q160.27-11.17 160.35-11.37L160.35-11.37Q160.74-11.80 160.90-11.93Q161.05-12.07 161.13-12.15L161.13-12.15Q161.37-12.38 161.48-12.46L161.48-12.46Q161.60-12.58 161.76-12.70Q161.91-12.81 162.11-12.93L162.11-12.93Q162.42-13.13 162.54-13.20Q162.66-13.28 162.81-13.36L162.81-13.36Q163.24-13.67 163.42-13.77Q163.59-13.87 163.87-14.06L163.87-14.06Q164.06-14.14 164.14-14.14Q164.22-14.14 164.30-14.18L164.30-14.18Q164.77-14.30 165-14.41Q165.23-14.53 165.47-14.73L165.47-14.73Q166.21-14.84 166.72-15L166.72-15Q167.15-15.08 167.29-15.08Q167.42-15.08 167.50-15.12L167.50-15.12Q167.62-15.16 167.75-15.18Q167.89-15.20 168.20-15.23L168.20-15.23Q168.40-15.16 168.59-15.12Q168.79-15.08 168.95-15.04L168.95-15.04Q169.10-15 169.30-15L169.30-15L169.14-16.33Q169.06-16.64 168.98-16.80L168.98-16.80Q168.91-16.91 168.83-17.05Q168.75-17.19 168.67-17.27L168.67-17.27Q168.52-17.50 168.20-17.64Q167.89-17.77 167.73-17.81L167.73-17.81Q167.54-17.85 166.99-17.81L166.99-17.81Q166.72-17.89 166.60-17.87Q166.48-17.85 166.41-17.85L166.41-17.85Q166.09-17.81 166.00-17.81Q165.90-17.81 165.82-17.81L165.82-17.81Q165.55-17.85 165.47-17.85Q165.39-17.85 165.31-17.85L165.31-17.85Q163.98-17.54 163.95-17.50L163.95-17.50Q163.79-17.34 163.61-17.29Q163.44-17.23 163.36-17.19L163.36-17.19Q163.24-17.11 163.14-17.05Q163.05-16.99 162.97-16.91L162.97-16.91Q162.85-16.84 162.81-16.80L162.81-16.80L162.23-16.29Q162.15-16.21 162.11-16.19Q162.07-16.17 162.03-16.17L162.03-16.17L161.91-16.09Q161.72-15.90 161.52-15.66L161.52-15.66Q161.48-15.63 161.41-15.57Q161.33-15.51 161.25-15.43L161.25-15.43L161.02-15.23L160.70-14.88L160.31-14.65Q160.20-14.65 160.04-14.65L160.04-14.65L159.53-14.65Q159.22-14.80 158.89-15.08Q158.55-15.35 158.52-15.86L158.52-15.86Q158.52-16.29 158.71-16.78Q158.91-17.27 159.18-17.54L159.18-17.54Q159.38-17.89 159.73-18.28Q160.08-18.67 160.43-18.83L160.43-18.83Q160.55-18.87 160.70-19.02L160.70-19.02Q160.90-19.22 160.98-19.28Q161.05-19.34 161.13-19.49L161.13-19.49Q161.37-19.61 161.45-19.67Q161.52-19.73 161.64-19.88L161.64-19.88Q162.23-20.08 162.36-20.14Q162.50-20.20 162.58-20.20L162.58-20.20Q162.89-20.35 163.01-20.39Q163.13-20.43 163.24-20.47L163.24-20.47Q163.52-20.63 163.79-20.70L163.79-20.70Q163.98-20.74 164.04-20.78Q164.10-20.82 164.22-20.90L164.22-20.90Q164.34-20.86 164.49-20.86Q164.65-20.86 164.80-20.86L164.80-20.86Q165.31-20.98 165.45-21.02Q165.59-21.05 165.66-21.09L165.66-21.09Q165.74-21.09 165.88-21.13Q166.02-21.17 166.21-21.13L166.21-21.13Q166.48-21.05 166.58-21.04Q166.68-21.02 166.76-21.02L166.76-21.02Q166.84-21.05 166.91-21.07Q166.99-21.09 167.19-21.17L167.19-21.17Q167.42-21.09 167.50-21.09Q167.58-21.09 167.66-21.09L167.66-21.09Q168.05-21.02 168.09-21.02L168.09-21.02Q168.13-21.02 168.18-21.02Q168.24-21.02 168.55-21.05L168.55-21.05Q168.91-20.98 169.00-20.94Q169.10-20.90 169.14-20.86L169.14-20.86Q169.61-20.66 169.73-20.63Q169.84-20.59 169.92-20.55L169.92-20.55Q170.08-20.51 170.47-20.31L170.47-20.31Q170.66-20.16 170.74-20.14Q170.82-20.12 170.98-20.04L170.98-20.04Q171.17-19.69 171.29-19.69Q171.41-19.69 171.45-19.69L171.45-19.69Q171.60-19.61 171.64-19.45Q171.68-19.30 171.91-19.18L171.91-19.18Q171.99-18.83 172.03-18.73Q172.07-18.63 172.11-18.55L172.11-18.55Q172.19-18.44 172.23-18.34Q172.27-18.24 172.34-18.13L172.34-18.13Q172.46-17.93 172.52-17.81Q172.58-17.70 172.70-17.58L172.70-17.58Q172.81-17.30 172.87-17.07Q172.93-16.84 173.01-16.64L173.01-16.64Q173.09-16.33 173.11-16.19Q173.13-16.05 173.24-15.78L173.24-15.78Q173.24-15.39 173.32-15.23L173.32-15.23Q173.32-15.16 173.36-15.02Q173.40-14.88 173.40-14.80L173.40-14.80Q173.40-14.73 173.44-14.41Q173.48-14.10 173.52-13.95L173.52-13.95Q173.55-13.87 173.55-13.73Q173.55-13.59 173.59-13.44L173.59-13.44Q173.59-13.28 173.63-13.09L173.63-13.09Q173.63-12.81 173.67-12.62L173.67-12.62Q173.67-12.42 173.69-12.27Q173.71-12.11 173.71-12.03L173.71-12.03Q173.75-11.72 173.71-11.62Q173.67-11.52 173.67-11.45L173.67-11.45Q173.71-11.09 173.71-10.94Q173.71-10.78 173.71-10.66L173.71-10.66Q173.71-10 173.73-9.53Q173.75-9.06 173.79-8.55L173.79-8.55Q173.79-8.28 173.75-8.03Q173.71-7.77 173.71-7.54L173.71-7.54Q173.71-7.19 173.69-6.86Q173.67-6.52 173.71-6.17L173.71-6.17Q174.02-6.13 174.14-6.13Q174.26-6.13 174.34-6.13L174.34-6.13Q174.65-6.17 174.84-6.05L174.84-6.05Q175.08-6.02 175.20-6.02Q175.31-6.02 175.51-5.98L175.51-5.98Q175.78-5.78 175.84-5.72Q175.90-5.66 175.98-5.59L175.98-5.59ZM170.16-10.23L170.16-10.23Q170.16-10.31 170.14-10.47Q170.12-10.63 170.12-10.82L170.12-10.82L170.12-11.29Q170.04-11.52 169.96-11.72L169.96-11.72Q169.80-12.11 169.77-12.19L169.77-12.19Q169.65-12.23 169.38-12.25Q169.10-12.27 168.83-12.25Q168.55-12.23 168.30-12.21Q168.05-12.19 167.97-12.19L167.97-12.19Q167.54-12.15 167.30-12.15Q167.07-12.15 166.91-12.07L166.91-12.07L166.13-11.76Q165.82-11.64 165.66-11.64L165.66-11.64Q165.39-11.52 165.31-11.46Q165.23-11.41 165.16-11.37L165.16-11.37Q164.80-11.13 164.26-10.86L164.26-10.86Q163.95-10.63 163.79-10.49Q163.63-10.35 163.44-10.27L163.44-10.27Q163.13-10.08 163.03-9.98Q162.93-9.88 162.85-9.80L162.85-9.80Q162.77-9.69 162.68-9.57Q162.58-9.45 162.46-9.34L162.46-9.34Q162.27-8.87 162.07-8.54Q161.88-8.20 161.68-7.27L161.68-7.27Q161.72-7.11 161.82-6.86Q161.91-6.60 161.99-6.41L161.99-6.41Q162.19-6.25 162.30-6.17Q162.42-6.09 162.50-6.02L162.50-6.02Q162.70-5.94 162.79-5.90Q162.89-5.86 162.97-5.82L162.97-5.82Q163.28-5.74 163.40-5.63L163.40-5.63L163.48-5.63Q163.52-5.63 163.54-5.61Q163.55-5.59 163.59-5.59L163.59-5.59Q163.67-5.55 163.79-5.51L163.79-5.51Q163.87-5.51 163.98-5.55L163.98-5.55Q164.14-5.63 164.22-5.63L164.22-5.63Q164.53-5.70 164.65-5.70Q164.77-5.70 164.84-5.70L164.84-5.70Q165.16-5.82 165.25-5.86Q165.35-5.90 165.43-5.94L165.43-5.94Q165.86-6.05 166.00-6.09Q166.13-6.13 166.21-6.21L166.21-6.21Q166.37-6.29 166.50-6.37Q166.64-6.45 166.80-6.52L166.80-6.52Q166.95-6.64 167.11-6.74Q167.27-6.84 167.46-6.95L167.46-6.95Q167.54-6.99 167.62-7.05Q167.70-7.11 167.77-7.15L167.77-7.15Q167.89-7.19 167.97-7.23L167.97-7.23L168.13-7.38Q168.24-7.50 168.40-7.58L168.40-7.58Q168.52-7.70 168.75-7.85L168.75-7.85Q168.98-8.05 169.06-8.14Q169.14-8.24 169.22-8.32L169.22-8.32Q169.53-8.52 169.63-8.59Q169.73-8.67 169.80-8.71L169.80-8.71L170.08-9.06Q170-9.49 170.06-9.77Q170.12-10.04 170.16-10.23Z M193.48-22.93L193.55-21.64L193.32-20.55Q193.24-20.35 193.07-20.04Q192.89-19.73 192.81-19.65L192.81-19.65Q192.62-19.45 192.38-19.41Q192.15-19.38 191.88-19.41L191.88-19.41Q191.56-19.41 191.33-19.53L191.33-19.53Q191.17-19.61 190.94-19.77L190.94-19.77Q190.82-19.84 190.78-19.92L190.78-19.92Q190.70-20.04 190.66-20.20L190.66-20.20Q190.63-20.31 190.59-20.41Q190.55-20.51 190.55-20.59L190.55-20.59Q190.47-20.90 190.45-21.02Q190.43-21.13 190.43-21.25L190.43-21.25Q190.39-21.45 190.39-21.66Q190.39-21.88 190.39-22.07L190.39-22.07Q190.43-22.27 190.41-22.38Q190.39-22.50 190.39-22.54L190.39-22.54Q190.31-22.62 190.31-22.71Q190.31-22.81 190.31-22.89L190.31-22.89Q190.31-22.97 190.35-23.01L190.35-23.01Q190.27-23.13 190.23-23.28L190.23-23.28Q190.16-23.59 190.16-23.71L190.16-23.71Q190-23.95 189.94-24.02Q189.88-24.10 189.84-24.18L189.84-24.18Q189.69-24.18 189.55-24.32Q189.41-24.45 189.30-24.49L189.30-24.49Q189.10-24.45 188.93-24.51Q188.75-24.57 188.55-24.53L188.55-24.53Q188.36-24.49 188.22-24.57Q188.09-24.65 187.77-24.45L187.77-24.45Q187.38-24.41 187.29-24.39Q187.19-24.38 187.11-24.34L187.11-24.34Q186.48-24.02 186.41-23.95Q186.33-23.87 186.17-23.71L186.17-23.71Q185.90-23.40 185.84-23.32Q185.78-23.24 185.70-23.16L185.70-23.16Q185.63-22.89 185.39-22.73L185.39-22.73Q185.20-22.42 185.08-22.30L185.08-22.30L184.73-21.68L184.41-21.09Q184.34-20.82 184.28-20.64Q184.22-20.47 184.18-20.35L184.18-20.35Q184.02-19.88 183.96-19.80Q183.91-19.73 183.91-19.69L183.91-19.69Q183.71-19.26 183.65-18.57Q183.59-17.89 183.52-17.73L183.52-17.73Q183.71-17.42 183.95-17.38Q184.18-17.34 184.41-17.38L184.41-17.38Q184.65-17.42 184.80-17.42Q184.96-17.42 185.08-17.46L185.08-17.46L185.82-17.58L185.82-17.89Q185.82-18.13 185.94-18.32L185.94-18.32Q185.98-18.63 186.09-18.85Q186.21-19.06 186.33-19.26L186.33-19.26Q186.52-19.53 186.54-19.57Q186.56-19.61 186.56-19.65L186.56-19.65Q186.56-19.73 186.80-19.80L186.80-19.80Q186.91-19.84 187.07-19.88L187.07-19.88L187.58-19.96Q187.66-19.96 187.75-19.94Q187.85-19.92 188.05-19.88L188.05-19.88Q188.09-19.80 188.14-19.75Q188.20-19.69 188.28-19.61L188.28-19.61Q188.36-19.53 188.44-19.49L188.44-19.49L188.59-19.26Q188.75-19.02 188.75-18.91L188.75-18.91Q188.87-18.36 188.87-18.24L188.87-18.24L188.87-18.09Q188.83-17.97 188.83-17.81L188.83-17.81Q188.83-17.70 188.81-17.58Q188.79-17.46 188.79-17.42L188.79-17.42Q188.87-17.30 188.85-16.97Q188.83-16.64 188.83-16.52L188.83-16.52Q188.87-16.09 188.87-15.88Q188.87-15.66 188.87-15.47L188.87-15.47Q188.79-15.16 188.77-14.96Q188.75-14.77 188.75-14.57L188.75-14.57Q188.75-14.45 188.73-14.30Q188.71-14.14 188.71-13.98L188.71-13.98L188.71-13.63Q188.67-13.52 188.63-13.36L188.63-13.36Q188.55-13.05 188.48-12.97L188.48-12.97Q188.44-12.85 188.28-12.62L188.28-12.62Q188.20-12.50 188.13-12.42L188.13-12.42Q187.97-12.30 187.81-12.23L187.81-12.23Q187.54-11.99 187.34-12.07L187.34-12.07Q187.23-12.07 187.13-12.11Q187.03-12.15 186.91-12.23L186.91-12.23Q186.68-12.30 186.60-12.30Q186.52-12.30 186.45-12.34L186.45-12.34Q186.29-12.38 186.05-12.62L186.05-12.62Q185.94-12.93 185.92-12.97Q185.90-13.01 185.90-13.05L185.90-13.05Q185.78-13.52 185.78-13.91L185.78-13.91Q185.78-14.10 185.82-14.30L185.82-14.30L185.27-14.30Q184.80-14.30 184.65-14.22L184.65-14.22Q184.41-14.30 184.30-14.30Q184.18-14.30 184.10-14.30L184.10-14.30Q183.75-14.34 183.61-14.34Q183.48-14.34 183.40-14.34L183.40-14.34Q183.40-14.26 183.38-14.14Q183.36-14.02 183.36-13.87L183.36-13.87Q183.36-13.55 183.38-13.22Q183.40-12.89 183.40-12.70L183.40-12.70Q183.36-12.54 183.34-12.44Q183.32-12.34 183.32-12.27L183.32-12.27Q183.36-11.95 183.36-11.80Q183.36-11.64 183.36-11.52L183.36-11.52Q183.36-11.21 183.38-11.15Q183.40-11.09 183.40-11.05L183.40-11.05Q183.32-10.70 183.32-10.63Q183.32-10.55 183.32-10.47L183.32-10.47Q183.28-9.96 183.24-9.92L183.24-9.92Q183.16-9.49 183.20-9.26L183.20-9.26Q183.24-9.06 183.28-8.89Q183.32-8.71 183.40-8.52L183.40-8.52Q183.40-8.16 183.42-8.07Q183.44-7.97 183.44-7.93L183.44-7.93Q183.52-7.58 183.46-7.42Q183.40-7.27 183.40-7.15L183.40-7.15Q183.48-6.72 183.50-6.45Q183.52-6.17 183.52-5.94L183.52-5.94L183.52-5.23Q183.63-4.96 183.69-4.92Q183.75-4.88 183.87-4.88L183.87-4.88Q184.18-4.92 184.39-4.92Q184.61-4.92 184.69-4.92L184.69-4.92Q185-4.96 185.06-4.98Q185.12-5 185.16-5L185.16-5Q185.35-5.04 185.66-4.96L185.66-4.96Q185.82-4.84 185.94-4.75Q186.05-4.65 186.13-4.49L186.13-4.49L186.29-4.34Q186.33-4.26 186.41-4.22L186.41-4.22Q186.45-4.18 186.48-4.10L186.48-4.10L186.56-3.95Q186.64-3.87 186.70-3.77Q186.76-3.67 186.76-3.52L186.76-3.52Q186.84-3.24 186.84-3.01Q186.84-2.77 186.64-2.58L186.64-2.58Q186.21-2.19 186.11-2.11Q186.02-2.03 185.98-1.99L185.98-1.99Q185.70-1.80 185.61-1.74Q185.51-1.68 185.39-1.60L185.39-1.60Q184.69-1.52 184.41-1.52Q184.14-1.52 183.95-1.56L183.95-1.56Q183.71-1.64 183.61-1.64Q183.52-1.64 183.44-1.64L183.44-1.64Q182.89-1.60 182.58-1.72L182.58-1.72Q182.23-1.76 182.15-1.74Q182.07-1.72 181.99-1.72L181.99-1.72Q181.91-1.68 181.82-1.70Q181.72-1.72 181.52-1.68L181.52-1.68Q181.21-1.64 181.11-1.64Q181.02-1.64 180.82-1.64L180.82-1.64Q180.47-1.60 180.33-1.58Q180.20-1.56 180.08-1.52L180.08-1.52Q180-1.48 179.73-1.56Q179.45-1.64 179.26-1.64L179.26-1.64Q179.06-1.72 178.81-1.99Q178.55-2.27 178.36-2.46L178.36-2.46Q178.20-3.13 178.30-3.40Q178.40-3.67 178.75-4.26L178.75-4.26Q179.02-4.34 179.18-4.43Q179.34-4.53 179.38-4.53L179.38-4.53Q179.57-4.53 179.65-4.55Q179.73-4.57 179.88-4.49L179.88-4.49Q180.04-4.65 180.04-4.79Q180.04-4.92 180.08-5.12L180.08-5.12Q180.08-5.43 180.04-5.59L180.04-5.59Q180.04-5.66 180.06-5.98Q180.08-6.29 180.12-6.64L180.12-6.64Q180.16-7.07 180.23-7.58L180.23-7.58Q180.20-8.20 180.16-8.71L180.16-8.71Q180.12-9.14 180.10-9.51Q180.08-9.88 180.08-9.96L180.08-9.96Q180.08-10.39 180.08-10.47Q180.08-10.55 180.12-10.63L180.12-10.63Q180.20-10.94 180.21-11.04Q180.23-11.13 180.23-11.21L180.23-11.21Q180.16-11.64 180.16-11.86Q180.16-12.07 180.23-12.30L180.23-12.30Q180.27-13.36 180.20-13.81Q180.12-14.26 180.04-14.34L180.04-14.34Q179.61-14.41 179.51-14.39Q179.41-14.38 179.26-14.34L179.26-14.34Q179.06-14.30 178.91-14.28Q178.75-14.26 178.55-14.26L178.55-14.26Q178.24-14.30 178.13-14.30Q178.01-14.30 177.93-14.30L177.93-14.30Q177.73-14.34 177.46-14.22L177.46-14.22Q177.11-14.41 176.97-14.47Q176.84-14.53 176.68-14.53L176.68-14.53Q176.45-14.73 176.37-14.82Q176.29-14.92 176.21-15.08L176.21-15.08Q176.02-15.66 176.00-15.86Q175.98-16.05 175.98-16.13L175.98-16.13Q175.94-16.25 175.96-16.21Q175.98-16.17 176.02-16.52L176.02-16.52Q176.41-16.76 176.56-16.84Q176.72-16.91 176.80-16.99L176.80-16.99Q177.19-17.07 177.32-17.13Q177.46-17.19 177.54-17.15L177.54-17.15Q177.89-17.15 178.30-17.19Q178.71-17.23 179.02-17.23L179.02-17.23L179.49-17.23Q179.57-17.27 179.69-17.30Q179.80-17.34 179.96-17.34L179.96-17.34Q180.08-18.01 180.16-18.50Q180.23-18.98 180.31-19.22L180.31-19.22Q180.35-19.41 180.39-19.63Q180.43-19.84 180.47-20.31L180.47-20.31Q180.70-20.63 180.80-20.92Q180.90-21.21 181.05-21.41L181.05-21.41L181.37-22.19Q181.68-22.97 181.89-23.30Q182.11-23.63 182.38-23.95L182.38-23.95Q182.46-24.14 182.62-24.38L182.62-24.38Q182.62-24.38 182.70-24.53L182.70-24.53L182.81-24.65Q182.85-24.73 182.93-24.77L182.93-24.77Q183.09-24.84 183.09-24.88L183.09-24.88L183.44-25.39L183.59-25.55Q183.75-25.70 183.83-25.70L183.83-25.70Q183.91-25.86 184.02-25.92Q184.14-25.98 184.22-26.05L184.22-26.05Q184.53-26.37 184.73-26.46Q184.92-26.56 185.04-26.60L185.04-26.60Q185.39-26.72 185.47-26.74Q185.55-26.76 185.63-26.80L185.63-26.80Q185.90-26.88 186.07-26.99Q186.25-27.11 186.41-27.15L186.41-27.15Q186.56-27.19 186.68-27.19Q186.80-27.19 186.91-27.23L186.91-27.23Q187.27-27.27 187.38-27.46L187.38-27.46Q187.73-27.62 187.95-27.60Q188.16-27.58 188.40-27.54L188.40-27.54Q188.55-27.50 188.61-27.48Q188.67-27.46 188.75-27.46L188.75-27.46L188.83-27.46Q189.22-27.54 189.61-27.50L189.61-27.50Q189.92-27.42 190-27.44Q190.08-27.46 190.16-27.50L190.16-27.50Q190.63-27.23 190.84-27.09Q191.05-26.95 191.21-26.88L191.21-26.88Q191.33-26.80 191.39-26.76Q191.45-26.72 191.64-26.64L191.64-26.64L191.95-26.29Q192.27-25.98 192.32-25.88Q192.38-25.78 192.42-25.70L192.42-25.70Q192.54-25.39 192.70-25.20L192.70-25.20Q192.77-25.04 192.93-24.65L192.93-24.65Q193.13-24.22 193.13-24.10L193.13-24.10Q193.28-23.91 193.40-23.36L193.40-23.36L193.48-22.93Z"/></g>
</svg>
</g><g opacity="1" transform="rotate(0 429.9983 266.6613)">
<svg width="100" height="100" x="429.9983" y="266.6613" version="1.1" preserveAspectRatio="none" viewBox="6.000062942504883 6.00042724609375 87.9998779296875 87.99981689453125">
  <g transform="matrix(1 0 0 1 0 0)" class="aX-P-qqalBcolors-0"><g transform="translate(0,-952.36218)"><path d="m 49.562449,958.64291 c -1.07098,1.9654 -1.99729,4.6901 -2.97201,8.3043 l -0.46927,-0.4371 c -0.32459,-0.3011 -0.95955,0.1132 -0.81339,0.5307 l 0.65697,1.8731 -1.03238,-0.4995 c -0.35746,-0.174 -0.82793,0.2528 -0.68826,0.6244 l 0.65697,1.8732 -1.03238,-0.4995 c -0.39607,-0.155 -0.83637,0.4001 -0.5944,0.7492 l 1.15752,1.6234 -1.12623,-0.4058 c -0.35874,-0.1204 -0.7636,0.3038 -0.62569,0.6556 l 0.75082,1.9044 -0.46926,-0.4371 c -0.32563,-0.3419 -1.01952,0.1375 -0.81339,0.562 l 1.50164,3.5278 -1.81449,-1.1552 c -0.36906,-0.2513 -0.93689,0.2662 -0.71954,0.6557 l 2.28376,4.3394 -1.56422,-0.999 c -0.36906,-0.2514 -0.93689,0.2661 -0.71954,0.6556 l 2.15862,4.0897 -2.47146,-1.7483 c -0.35689,-0.3441 -1.04535,0.257 -0.75082,0.6557 l 3.22228,6.0877 -2.47146,-1.7483 c -0.3572,-0.2751 -0.95761,0.2242 -0.75082,0.6244 l 3.12843,6.64967 -1.28266,-1.2176 c -0.33848,-0.2689 -0.9303,0.1564 -0.78211,0.562 l 0.0938,0.1561 3.31614,7.11802 -2.69045,-1.9044 c -0.34987,-0.2415 -0.90599,0.1979 -0.75082,0.5931 2.80202,7.0642 5.59603,14.9001 7.66465,22.8213 -3.57122,-6.1197 -6.64399,-12.6374 -9.26015,-18.6691 -0.18502,-0.3693 -0.85694,-0.2799 -0.93853,0.1249 l -0.43798,2.6537 -2.34632,-6.4936 c -0.15935,-0.43 -0.95395,-0.3021 -0.96981,0.156 l -0.0313,1.1864 -2.06477,-5.71312 c -0.14416,-0.422 -0.90936,-0.3482 -0.96981,0.094 l -0.43798,2.43512 -1.72064,-5.61952 c -0.13403,-0.4215 -0.89117,-0.3728 -0.96981,0.062 l -0.4067,2.4351 -1.15751,-3.7152 c -0.12246,-0.42277 -0.87497,-0.39857 -0.96982,0.031 l -0.31284,1.3737 -1.22009,-3.90247 c -0.15345,-0.3751 -0.81049,-0.3533 -0.93853,0.031 l -0.37541,1.6546 -1.22008,-2.9347 c -0.16319,-0.4394 -0.98282,-0.281 -0.96982,0.1874 l 0,0.2498 -0.5944,-1.3736 c -0.14122,-0.3794 -0.79731,-0.3794 -0.93853,0 l -0.34412,0.7804 -0.28156,-1.561 c -0.0605,-0.4417 -0.82565,-0.5156 -0.96982,-0.094 l -0.28155,0.8116 -0.68826,-1.436 c -0.15341,-0.3751 -0.81045,-0.3533 -0.93853,0.031 l -0.28156,0.813 -0.68825,-1.4361 c -0.2019,-0.373 -0.89593,-0.2345 -0.93853,0.1873 l -0.0313,0.4683 c -2.34996,-1.2132 -4.7480095,-2.6044 -7.1015295,-3.309 -0.313,0 -0.56704,0.3589 -0.46927,0.6556 0.6024,1.8237 1.75661,4.183 3.31614,6.9619 l -0.50055,0 c -0.4821,-0.05 -0.67585,0.8062 -0.21899,0.9678 l 1.4703595,0.68677 -0.8133895,0.2809 c -0.39144,0.1135 -0.43544,0.7724 -0.0626,0.9367 l 1.4390795,0.6867 -0.8134,0.281 c -0.4227495,0.144 -0.3487095,0.9074 0.0938,0.9678 l 1.50165,0.281 -0.75082,0.3122 c -0.38014,0.141 -0.38014,0.7956 0,0.9366 l 1.47036,0.6244 -0.31284,0 c -0.459,0.016 -0.58714,0.8086 -0.15643,0.9677 l 2.94073,1.18642 -1.65807,0.3747 c -0.43072,0.095 -0.45499,0.8454 -0.0313,0.9677 l 3.91054,1.2175 -1.37651,0.3123 c -0.43608,0.079 -0.48492,0.8339 -0.0626,0.9678 l 3.72283,1.1238 -2.44018,0.4371 c -0.43624,0.079 -0.4851,0.8342 -0.0626,0.9679 l 5.59989,1.717 -2.40889,0.4059 c -0.44257,0.06 -0.51661,0.8238 -0.0939,0.9677 l 5.78759,2.0917 -1.22008,0.031 c -0.45901,0.016 -0.58714,0.8086 -0.15643,0.9678 l 6.47585,2.3103 -2.65916,0.4682 c -0.3981,0.098 -0.46459,0.7617 -0.0939,0.9366 6.05382,2.6148 12.57228,5.7022 18.70801,9.2721 -4.60327,-1.1569 -9.14307,-2.6571 -13.26455,-4.1521 -0.40644,-0.1479 -0.83249,0.4426 -0.56311,0.7804 l 0.68825,0.8741 -3.87925,-1.6545 c -0.39607,-0.155 -0.83638,0.4001 -0.5944,0.7492 l -3.22228,-1.3425 c -0.40651,-0.1479 -0.83268,0.4428 -0.56312,0.7806 l 0.56312,0.718 -3.12843,-1.4986 c -0.10626,-0.05 -0.23054,-0.062 -0.34413,-0.031 -0.33824,0.07 -0.50441,0.5484 -0.28156,0.8117 l 0.53183,0.6867 -1.7832,-0.8741 c -0.40107,-0.2064 -0.90141,0.3928 -0.62569,0.7492 l 0.18771,0.2498 -2.09605,-0.999 c -0.40107,-0.2064 -0.90141,0.3928 -0.62568,0.7492 l 0.34412,0.4995 -1.65806,-0.6244 c -0.30742,-0.1013 -0.67328,0.1769 -0.65697,0.4996 l -0.59441,-0.2186 c -0.36494,-0.1556 -0.81285,0.2915 -0.65697,0.6556 l -0.53183,-0.3122 c -0.3689,-0.1973 -0.86862,0.2787 -0.68825,0.6556 l 0.0938,0.1874 -0.78211,-0.2498 c -0.36526,-0.105 -0.7517,0.3414 -0.5944,0.6868 l 0.0626,0.1248 -0.68826,-0.2184 c -0.41837,-0.146 -0.83357,0.4877 -0.53183,0.8117 -1.4063695,0.2921 -3.4511195,0.9722 -4.9116295,1.6856 -0.31104,0.1718 -0.31104,0.7023 0,0.8741 1.18449,0.5473 2.93052,1.0567 4.9741995,1.5922 -0.2554,0.1363 -0.0695,0.4775 -0.0886,0.6088 0.11318,0.2 0.33505,0.3433 0.55784,0.2657 l 0.68826,-0.2185 c -0.22597,0.1782 0.009,0.4841 0.0115,0.6222 0.12507,0.1569 0.32653,0.254 0.52035,0.1898 l 0.75082,-0.2497 c -0.20632,0.2171 0.0341,0.5138 0.0442,0.6672 0.14802,0.1625 0.38357,0.2504 0.58146,0.1445 l 0.50054,-0.2811 c -0.15588,0.3642 0.29203,0.8112 0.65698,0.6557 l 0.62568,-0.2185 c -0.0163,0.3227 0.34955,0.6008 0.65697,0.4995 l 1.65807,-0.6244 -0.34413,0.4995 c -0.21817,0.3591 0.23908,0.8838 0.62569,0.718 l 2.12733,-1.0302 -0.21899,0.3122 c -0.21817,0.3591 0.23908,0.8838 0.62568,0.718 l 1.84578,-0.9054 -0.5944,0.7806 c -0.27573,0.3564 0.22461,0.9556 0.62568,0.7492 l 3.12843,-1.5298 -0.5944,0.7806 c -0.40954,0.3268 0.21615,1.1074 0.62568,0.7805 l 3.12843,-1.3425 c -0.25187,0.3683 0.26658,0.935 0.65697,0.7181 l 3.87926,-1.6547 -0.68826,0.8742 c -0.26956,0.3377 0.15661,0.9285 0.56312,0.7805 4.36386,-1.583 9.19342,-3.1881 14.07793,-4.3707 -3.74802,3.162 -6.92168,6.6075 -9.29144,9.7091 -0.29934,0.3863 0.34623,1.0025 0.71954,0.6869 3.75986,-3.0528 7.49853,-6.4396 10.01098,-9.6467 -0.59485,5.9473 -0.43413,11.5019 0.21899,16.3276 0.004,0.2591 0.24079,0.4925 0.50055,0.4925 0.25975,0 0.49687,-0.2334 0.50054,-0.4925 0.62091,-4.795 0.86789,-11.4685 0.28156,-16.1716 3.220431,3.858 6.742541,7.1066 9.917121,9.5218 0.37333,0.3152 1.01847,-0.3005 0.71954,-0.6867 -2.96249,-3.6112 -6.21876,-7.2668 -9.322721,-9.7404 4.904641,1.184 9.759091,2.7813 14.140501,4.3707 0.40651,0.148 0.83268,-0.4428 0.56312,-0.7805 l -0.68826,-0.8742 3.87926,1.6547 c 0.39607,0.155 0.83637,-0.4001 0.5944,-0.7493 l 3.19099,1.3737 c 0.40954,0.3269 1.03523,-0.4537 0.62569,-0.7805 l -0.5944,-0.7806 3.12843,1.5298 c 0.40107,0.2064 0.90142,-0.3928 0.62568,-0.7492 l -0.5944,-0.7806 1.84578,0.9054 c 0.3866,0.1658 0.84385,-0.3589 0.62568,-0.718 l -0.21899,-0.3122 2.12733,1.0302 c 0.38661,0.1658 0.84386,-0.3589 0.62569,-0.718 l -0.34413,-0.4995 1.65807,0.6244 c 0.30742,0.1013 0.67328,-0.1768 0.65697,-0.4995 l 0.62568,0.2185 c 0.36494,0.1555 0.81286,-0.2915 0.65697,-0.6557 l 0.50055,0.2811 c 0.36895,0.1974 0.86878,-0.2788 0.68826,-0.6557 l -0.0626,-0.156 0.750821,0.2497 c 0.3803,0.1258 0.79003,-0.3691 0.5944,-0.7181 l -0.0626,-0.094 0.68826,0.2185 c 0.41831,0.1458 0.83337,-0.4876 0.53183,-0.8116 l -0.0626,-0.063 c 2.04368,-0.5355 3.78973,-1.0449 4.97421,-1.5922 0.31104,-0.1718 0.31104,-0.7023 0,-0.8741 -1.16875,-0.5825 -2.89941,-1.1303 -4.94292,-1.6547 l 0.0312,-0.031 c 0.30175,-0.324 -0.11346,-0.9577 -0.53183,-0.8117 l -0.68826,0.2184 0.0626,-0.1248 c 0.15731,-0.3454 -0.22914,-0.7918 -0.5944,-0.6868 l -0.78211,0.2498 0.0938,-0.1874 c 0.18036,-0.3769 -0.31935,-0.8529 -0.68826,-0.6556 l -0.531831,0.3122 c 0.15588,-0.3641 -0.29203,-0.8112 -0.65697,-0.6556 l -0.5944,0.2186 c 0.0163,-0.3227 -0.34955,-0.6009 -0.65697,-0.4996 l -1.65807,0.6244 0.34413,-0.4995 c 0.27573,-0.3564 -0.22462,-0.9556 -0.62569,-0.7492 l -2.09604,0.999 0.1877,-0.2498 c 0.27573,-0.3564 -0.22462,-0.9556 -0.62568,-0.7492 l -1.78321,0.8741 0.53183,-0.6868 c 0.40954,-0.3269 -0.21614,-1.1074 -0.62568,-0.7806 l -3.12843,1.4986 0.56312,-0.718 c 0.26956,-0.3378 -0.15662,-0.9285 -0.56312,-0.7806 l -3.15971,1.3114 c 0.25187,-0.3683 -0.26659,-0.935 -0.65697,-0.7181 l -3.87926,1.6545 0.68826,-0.8741 c 0.26937,-0.3378 -0.15667,-0.9283 -0.56312,-0.7804 -4.13026,1.4982 -8.68245,2.9942 -13.295821,4.1521 6.143321,-3.5729 12.682961,-6.6563 18.739291,-9.2721 0.37007,-0.1846 0.28048,-0.8551 -0.12514,-0.9366 l -2.62788,-0.4682 6.47585,-2.3103 c 0.43071,-0.1592 0.30258,-0.9519 -0.15642,-0.9678 l -1.25138,-0.031 5.7876,-2.0917 c 0.42234,-0.1339 0.37351,-0.8892 -0.0626,-0.9677 l -2.40889,-0.4059 5.5686,-1.717 c 0.42254,-0.1337 0.37368,-0.8895 -0.0626,-0.9679 l -2.44017,-0.4371 3.72283,-1.1238 c 0.4237,-0.1223 0.39943,-0.8731 -0.0312,-0.9678 l -1.37651,-0.3123 3.91053,-1.2175 c 0.42371,-0.1223 0.39943,-0.873 -0.0312,-0.9677 l -1.68935,-0.3747 2.972,-1.18642 c 0.43072,-0.1591 0.30259,-0.9519 -0.15642,-0.9677 l -0.31284,0 1.47036,-0.6244 c 0.38014,-0.141 0.38014,-0.7956 0,-0.9366 l -0.75082,-0.3122 1.50164,-0.281 c 0.43608,-0.079 0.48492,-0.8339 0.0626,-0.9678 l -0.81339,-0.281 1.47036,-0.6867 c 0.37287,-0.1643 0.32887,-0.8232 -0.0626,-0.9367 l -0.81339,-0.2809 1.43908,-0.68677 c 0.44018,-0.163 0.28161,-0.9805 -0.18771,-0.9678 l -0.53183,0 c 1.55995,-2.7795 2.74492,-5.1379 3.34742,-6.9619 0.0978,-0.2967 -0.15626,-0.6517 -0.46926,-0.6556 -1.76098,0.4242 -5.02434,2.0343 -7.13282,3.309 l 0,-0.4683 c -0.0427,-0.4218 -0.73664,-0.5603 -0.93853,-0.1873 l -0.71954,1.4674 -0.28156,-0.843 c -0.1479,-0.3482 -0.73569,-0.3683 -0.90724,-0.031 l -0.71954,1.4673 -0.28156,-0.8429 c -0.14417,-0.422 -0.90937,-0.3481 -0.96981,0.094 l -0.25028,1.5922 -0.37541,-0.8116 c -0.16007,-0.3423 -0.74717,-0.3423 -0.90724,0 l -0.62569,1.4359 0,-0.3121 c -0.0425,-0.4217 -0.73661,-0.5604 -0.93853,-0.1874 l -1.22008,2.9653 -0.37542,-1.6858 c -0.0948,-0.4299 -0.84735,-0.4542 -0.96981,-0.031 l -1.22009,3.93367 -0.31284,-1.4049 c -0.0948,-0.42987 -0.84736,-0.45407 -0.96981,-0.031 l -1.12624,3.684 -0.40669,-2.4039 c -0.0787,-0.4353 -0.83579,-0.484 -0.96981,-0.062 l -1.75192,5.58832 -0.4067,-2.40392 c -0.0605,-0.4418 -0.82565,-0.5156 -0.96981,-0.094 l -2.06477,5.71312 -0.0312,-1.1864 c -0.0158,-0.4581 -0.81047,-0.586 -0.96981,-0.156 l -2.34632,6.431 -0.43798,-2.5911 c -0.0397,-0.4494 -0.81708,-0.5495 -0.96982,-0.1249 -2.58023,5.9488 -5.62534,12.3425 -9.135011,18.3882 2.05552,-7.8269 4.801521,-15.5588 7.570801,-22.5404 0.15516,-0.3952 -0.40095,-0.8346 -0.75083,-0.5931 l -2.65916,1.8732 3.40999,-7.24292 c 0.20612,-0.4245 -0.48777,-0.9039 -0.81339,-0.562 l -1.22009,1.1551 3.09714,-6.58717 c 0.2068,-0.4002 -0.39362,-0.8995 -0.75082,-0.6244 l -2.50274,1.7796 3.22228,-6.119 c 0.21735,-0.3895 -0.35047,-0.907 -0.71954,-0.6557 l -2.50274,1.7796 2.1899,-4.121 c 0.21735,-0.3895 -0.35048,-0.907 -0.71954,-0.6556 l -1.5955,0.999 2.31504,-4.3394 c 0.21735,-0.3895 -0.35048,-0.907 -0.71954,-0.6557 l -1.81449,1.1552 1.47036,-3.5278 c 0.1482,-0.4056 -0.44362,-0.8309 -0.78211,-0.562 l -0.46926,0.4371 0.78211,-1.9668 c 0.12061,-0.358 -0.30453,-0.762 -0.65697,-0.6244 l -1.12624,0.437 1.15752,-1.6234 c 0.27573,-0.3564 -0.22461,-0.9556 -0.62568,-0.7492 l -1.03239,0.4995 0.65697,-1.8732 c 0.13968,-0.3716 -0.3308,-0.7984 -0.68825,-0.6244 l -1.0011,0.4684 0.62569,-1.842 c 0.14616,-0.4175 -0.4888,-0.8318 -0.81339,-0.5307 l -0.469271,0.4683 c -0.99594,-3.5437 -1.94827,-6.3711 -2.94072,-8.3355 -0.0843,-0.1733 -0.27641,-0.2883 -0.46926,-0.281 -0.18968,0 -0.32289,0.1438 -0.43803,0.2802 z m 0.40669,1.5922 c 0.89923,1.9666 1.77442,4.2725 2.72173,7.7735 0.0647,0.1962 0.26228,0.3409 0.46927,0.3435 l -0.46927,1.3424 c -0.13967,0.3716 0.33081,0.7984 0.68826,0.6243 l 1.032381,-0.4995 -0.65697,1.8732 c -0.13967,0.3716 0.3308,0.7984 0.68825,0.6244 l 0.37542,-0.1873 -1.0011,1.436 c -0.24198,0.3492 0.19833,0.9043 0.5944,0.7493 l 1.62678,-0.6244 -1.22008,2.9971 c -0.14632,0.4175 0.48877,0.8319 0.81339,0.5307 l 0.37541,-0.3434 -1.1888,2.7784 c -0.2068,0.4003 0.39362,0.8996 0.75082,0.6244 l 1.56421,-0.999 -2.28375,4.3395 c -0.21716,0.3896 0.35049,0.9067 0.71954,0.6556 l 1.56421,-0.999 -2.28375,4.3395 c -0.16617,0.3858 0.35972,0.8422 0.71954,0.6244 l 2.53403,-1.7795 -3.25357,6.1502 c -0.16617,0.3858 0.35972,0.84207 0.71954,0.6244 l 2.72173,-1.9044 -3.34742,7.14917 -0.0938,0.156 c -0.14834,0.4057 0.44361,0.8311 0.78211,0.5621 l 1.28265,-1.2176 -3.12843,6.64962 c -0.15531,0.3952 0.40093,0.8348 0.75083,0.5932 l 2.94072,-2.0917 c -2.78918,7.1388 -5.498491,14.9516 -7.476941,22.8838 -1.97829,-7.9294 -4.65747,-15.7474 -7.44567,-22.8838 l 2.94073,2.0917 c 0.34989,0.2416 0.90613,-0.198 0.75082,-0.5932 l -3.09715,-6.58722 1.22009,1.1552 c 0.32561,0.3421 1.01977,-0.1375 0.81339,-0.5621 l -3.44127,-7.30517 2.69045,1.9044 c 0.3572,0.27507 0.95762,-0.2242 0.75082,-0.6244 l -3.28485,-6.1814 2.53403,1.8107 c 0.3572,0.2751 0.95762,-0.2242 0.75082,-0.6244 l -2.31503,-4.3395 1.59549,0.999 c 0.36904,0.2511 0.9367,-0.266 0.71954,-0.6556 l -2.31503,-4.3395 1.59549,0.999 c 0.35982,0.2178 0.88572,-0.2385 0.71954,-0.6244 l -1.15752,-2.7784 0.34413,0.3434 c 0.32461,0.3012 0.95972,-0.1132 0.81339,-0.5307 l -1.15752,-2.9658 1.56422,0.5931 c 0.39607,0.155 0.83638,-0.4001 0.5944,-0.7493 l -1.0011,-1.436 0.37542,0.1873 c 0.35745,0.174 0.82792,-0.2528 0.68825,-0.6244 l -0.65697,-1.8732 1.03238,0.4995 c 0.35745,0.1741 0.82793,-0.2527 0.68826,-0.6243 l -0.46927,-1.3424 c 0.21476,-0.01 0.41564,-0.1671 0.46927,-0.3746 0.77083,-2.6539 1.59311,-5.4439 2.65911,-7.7424 z m -22.33698,63.34349 3.87925,1.6545 c 0.39607,0.155 0.83637,-0.4001 0.5944,-0.7492 l 3.15971,1.3424 c 0.4125,0.2016 0.89943,-0.4377 0.5944,-0.7804 l -0.84467,-1.1239 c 4.10658,1.4542 8.5232,2.8258 13.04555,3.9024 -4.51864,1.0712 -8.94022,2.4217 -13.04555,3.8712 l 0.84467,-1.1239 c 0.30503,-0.3427 -0.1819,-0.9821 -0.5944,-0.7805 l -3.12843,1.3111 c 0.21818,-0.359 -0.23907,-0.8837 -0.62568,-0.718 l -3.87925,1.6859 0.68825,-0.9053 c 0.40954,-0.3269 -0.21615,-1.1074 -0.62568,-0.7806 l -3.12843,1.5298 0.56311,-0.7492 c 0.30529,-0.3427 -0.18185,-0.9824 -0.5944,-0.7806 l -2.03348,0.9991 0.15642,-0.2498 c 0.27573,-0.3564 -0.22461,-0.9556 -0.62568,-0.7493 l -2.09605,0.9991 0.18771,-0.2498 c 0.24197,-0.3491 -0.19833,-0.9042 -0.5944,-0.7493 l -1.22009,0.4683 c -0.004,-0.3124 -0.35961,-0.5659 -0.65697,-0.4683 l -1.50165,0.5308 0.21899,-0.4683 c 0.16618,-0.3858 -0.35972,-0.8422 -0.71954,-0.6244 l -0.50054,0.3122 c -0.07,-0.2688 -0.39563,-0.4391 -0.65697,-0.3434 l -0.75083,0.2498 c 0.20268,-0.241 0.14816,-0.5833 -0.12638,-0.8136 -0.38199,-0.1554 -0.66511,0.025 -1.06242,0.1579 -0.064,-0.1213 -0.18018,-0.2141 -0.31284,-0.2497 -1.89148,-0.4681 -3.0081695,-0.9073 -4.1608095,-1.3424 1.13922,-0.4501 2.2602695,-0.8899 4.1608095,-1.3425 0.12747,-0.028 0.24251,-0.1088 0.31284,-0.2186 l 0.65697,0.2189 c 0.38665,0.1659 0.84401,-0.359 0.62569,-0.7181 l -0.0626,-0.1248 0.71953,0.2185 c 0.2698,0.095 0.60161,-0.095 0.65697,-0.3746 l 0.50055,0.3122 c 0.34963,0.1951 0.84552,-0.2137 0.71954,-0.5931 l -0.1877,-0.4995 1.47036,0.5618 c 0.29736,0.098 0.65301,-0.1558 0.65697,-0.4682 l 1.22008,0.4682 c 0.39608,0.155 0.83638,-0.4001 0.59441,-0.7492 l -0.21899,-0.3121 2.12733,1.0302 c 0.38665,0.1658 0.84401,-0.3591 0.62568,-0.7181 l -0.1877,-0.281 2.06476,0.9991 c 0.39607,0.1549 0.83638,-0.4002 0.5944,-0.7493 l -0.5944,-0.7804 3.15971,1.5297 c 0.40107,0.2064 0.90142,-0.3929 0.62569,-0.7493 z m 44.736531,0 -0.68825,0.8741 c -0.27573,0.3564 0.22461,0.9557 0.62568,0.7493 l 3.15972,-1.5297 -0.59441,0.7804 c -0.24197,0.3491 0.19833,0.9042 0.59441,0.7493 l 2.06476,-0.9991 -0.18771,0.281 c -0.21833,0.359 0.23904,0.8839 0.625691,0.7181 l 2.12733,-1.0302 -0.218991,0.3121 c -0.241969,0.3491 0.19833,0.9042 0.5944,0.7492 l 1.22009,-0.4682 c 0.004,0.3124 0.35961,0.5658 0.65697,0.4682 l 1.47036,-0.5618 -0.1877,0.4995 c -0.12598,0.3794 0.36991,0.7882 0.71953,0.5931 l 0.50055,-0.3122 c 0.0554,0.2799 0.38718,0.4691 0.65697,0.3746 l 0.71954,-0.2185 -0.0626,0.1248 c -0.21833,0.3591 0.23903,0.884 0.62569,0.7181 l 0.65697,-0.2186 c 0.0703,0.1098 0.18536,0.1903 0.31284,0.2186 1.90053,0.4526 3.02159,0.8924 4.16081,1.3425 -1.15264,0.4351 -2.26933,0.8743 -4.16081,1.3424 -0.13266,0.036 -0.24886,0.1284 -0.31284,0.2497 l -0.65697,-0.2185 c -0.37237,-0.1393 -0.79999,0.3301 -0.62569,0.6868 l 0.0938,0.1874 -0.75083,-0.2498 c -0.26979,-0.095 -0.60161,0.095 -0.65697,0.3747 l -0.50055,-0.3435 c -0.35981,-0.2178 -0.88571,0.2386 -0.71953,0.6244 l 0.21899,0.4683 -1.50165,-0.5308 c -0.29736,-0.098 -0.65302,0.1559 -0.65697,0.4683 l -1.22009,-0.4683 c -0.39607,-0.1549 -0.83637,0.4002 -0.5944,0.7493 l 0.18771,0.2498 -2.09605,-0.9991 c -0.40107,-0.2063 -0.90142,0.3929 -0.62569,0.7493 l 0.15642,0.2498 -2.03347,-0.9991 c -0.41256,-0.2018 -0.89969,0.4379 -0.59441,0.7806 l 0.56312,0.7492 -3.12843,-1.5298 c -0.40954,-0.3268 -1.03522,0.4537 -0.62568,0.7806 l 0.68825,0.9053 -3.87925,-1.6859 c -0.39607,-0.1549 -0.83638,0.4002 -0.5944,0.7493 l -3.15971,-1.3424 c -0.41251,-0.2016 -0.89944,0.4378 -0.59441,0.7805 l 0.84468,1.1239 c -4.10533,-1.4495 -8.52691,-2.8 -13.045551,-3.8712 4.522361,-1.0766 8.938971,-2.4482 13.045551,-3.9024 l -0.84468,1.1239 c -0.30503,0.3427 0.1819,0.982 0.59441,0.7804 l 3.12842,-1.3112 c -0.21817,0.3591 0.23909,0.8838 0.62569,0.718 z" style="text-indent:0;text-transform:none;direction:ltr;block-progression:tb;baseline-shift:baseline;color:#000000;enable-background:accumulate;" marker="none" visibility="visible" display="inline" overflow="visible"></path></g></g>
</svg>
</g></svg>